<svg xmlns="http://www.w3.org/2000/svg" viewBox="0 0 1024 3660"><defs><style>.a{opacity:0.6;}.b{opacity:0.8;}.c{fill:#adcafa;}.d{fill:#edf4fe;}.e{fill:#c9dcfc;}.f{fill:#d3e3fc;}.g{fill:#dae7fd;}.h{fill:#e4eefd;}.i{fill:#c1d7fb;}.j{fill:#e9f6f0;}.k{fill:#bde4d1;}.l{fill:#cae9da;}.m{fill:#d1ecdf;}.n{fill:#def2e8;}.o{fill:#b3e0ca;}.p{fill:#bce4d1;}.q{fill:#ffeaaf;}.r{fill:#fffaee;}.s{fill:#fff7e1;}.t{fill:#fff1ca;}.u{fill:#fff4d4;}.v{fill:#fff5da;}.w{fill:#fff8e5;}.x{fill:#ffefc2;}.y{fill:#fff1c9;}</style></defs><title>bg-img4svg</title><g class="a"><g class="b"><g class="b"><path class="c" d="M867.78,1171.29c-15.72-10.89-20,9.22-28.28,26.7q3.57-2.59,7.28-5Q857.22,1181.94,867.78,1171.29Z"/><path class="c" d="M846.77,1193q-3.7,2.44-7.28,5c-1,2.17-2.11,4.28-3.28,6.28l2.62-2.86,2.63-2.81Z"/><path class="c" d="M875,1177.64a49.78,49.78,0,0,0-7.2-6.35q-10.58,10.62-21,21.69A176.68,176.68,0,0,1,875,1177.64Z"/><path class="c" d="M836.22,1204.27c-3.71,4-7.54,8.19-11.11,12.31C829.74,1213.88,833.21,1209.41,836.22,1204.27Z"/><path class="d" d="M832.55,1576a237.2,237.2,0,0,1-3.06-33,201.41,201.41,0,0,1,1.93-31.25l.5-3.8.72-3.76c.47-2.5.84-5,1.46-7.46,1-4.91,2.44-9.82,3.85-14.72a230.93,230.93,0,0,1,11.36-29.41,281,281,0,0,1,16-29.4l2.28-3.67,2.39-3.66c1.54-2.45,3.29-4.87,4.9-7.32,3.41-4.86,6.87-9.73,10.59-14.56s7.54-9.65,11.47-14.45,8.07-9.57,12.35-14.3c8.46-9.49,17.47-18.87,26.89-28.14-13.69,7.31-26.87,14.82-39.12,22.63A289.33,289.33,0,0,0,863.84,1384a145.44,145.44,0,0,0-35.12,43.24,141,141,0,0,0-15.6,50.18c-.2,2.13-.44,4.25-.58,6.37s-.23,4.24-.29,6.35v6.31l.33,6.33.16,3.15c.09,1.05.23,2.11.35,3.15l.72,6.26c.3,2.09.71,4.17,1.06,6.24l.53,3.1c.16,1,.46,2.07.68,3.1l1.41,6.15c.49,2,1.14,4.09,1.69,6.12,1,4,2.53,8.1,3.79,12.1C825.85,1560.22,828.89,1568.11,832.55,1576Z"/><path class="d" d="M826.64,1572.69c-3.29-8-6.62-16.1-9.14-24.29-1.45-4.11-2.45-8.22-3.66-12.39-.32-1-.52-2.08-.76-3.12l-.71-3.13c-.46-2.09-1-4.21-1.34-6.31l-1.11-6.35c-.09-.53-.2-1.07-.27-1.6l-.18-1.59-.37-3.19-.38-3.21-.19-1.61-.09-1.6-.36-6.45a147.41,147.41,0,0,1,18.16-77.11,150.55,150.55,0,0,1,36.3-43.68,291.78,291.78,0,0,1,33.79-24.49q9.34-5.88,19.32-11.55c6.62-3.79,13.46-7.49,20.38-11.17q5.72-5.56,11.64-11.06c3.91-3.63,8-7.4,12.26-11.24,8.46-7.66,17.33-15.53,26.57-23.78,18.45-16.49,38.25-34.26,58.46-54.75s40.84-43.78,59.85-71.38a398.61,398.61,0,0,0,26.54-44.66c2-4,3.94-8.06,5.87-12.12s3.73-8.26,5.44-12.49,3.45-8.48,5-12.72,3.07-8.51,4.48-12.76c3.65-15.07,6.52-29.78,9-44.16s4.4-28.41,5.94-42,2.81-27,3.79-40,1.69-25.64,2.27-38l-.43-11-.61-11.07-.83-11.22L1170.2,854c-1.57-15.26-3.79-30.91-6.94-46.94A433.14,433.14,0,0,0,1150.66,758a376.06,376.06,0,0,0-20.19-50.28l-3.17-6.27c-1.08-2.09-2.09-4.18-3.28-6.25-2.32-4.14-4.61-8.32-7-12.4s-5-8-7.55-12l-1.92-3c-.65-1-1.33-1.92-2-2.88l-4-5.72-4.06-5.7-1-1.42-1-1.36-2.11-2.71c-2.82-3.61-5.65-7.22-8.52-10.77-5.83-6.78-11.71-13.72-17.76-19.94-6-6.51-12.16-12.33-18.34-18.3-3.09-2.85-6.19-5.62-9.3-8.42-1.55-1.37-3.12-2.84-4.67-4.13l-4.68-3.94-4.69-3.93-2.35-2-2.34-1.86-9.38-7.38c-3.13-2.42-6.23-4.67-9.35-7l-4.68-3.46-4.64-3.28c-12.44-8.89-24.67-16.81-36.72-24.39l-9-5.58L938,518.26c-3-1.81-5.85-3.48-8.76-5.19s-5.84-3.46-8.66-5l-17.09-9.72c-5.7-3.23-11.39-6.52-17.16-9.61L869,479.29c-2.88-1.56-5.76-3.15-8.66-4.68l-8.71-4.55q-69.66-36.57-142-67.74c-48.13-20.88-97-39.93-146.45-57.55S463.81,311,413.4,296,312.16,267.43,261,254.67s-102.7-24.56-154.51-35.6c-12.15-2.58-50.6-8.59-89.24-12.24s-77.5-5.29-90.91-.4l-44.19,2.77-1.24,6.62c37,7.62,73.2,17.38,114.54,21.42,24.16,4.79,49.72,2.55,73.94,7.58,54.42,11.36,105.46,24.58,158.37,37.25S335.41,307,397.83,317.25c9.58.8,20,4.44,30.88,9.29,5.43,2.41,11,5.23,16.52,8.23s11.18,6.14,16.79,9.29c11.21,6.33,22.35,12.83,33.08,17.91s21,9.11,30.56,10.35A822.41,822.41,0,0,1,628.6,409.57c32.47,14.17,63.31,29.85,93.45,45.88l22.47,12.17c3.74,2,7.44,4.09,11.15,6.16L766.79,480l11.12,6.12L789,492.31l22.22,12.32q11.09,6.24,22.3,12.3l5.62,3,5.6,3.08q5.62,3.07,11.28,6.08l22.84,12q5.75,3,11.58,5.91l11.77,5.84c13.05,6.27,25.95,12.65,38.57,19.18s25.05,13.36,37.25,20.64l9.11,5.53,9,5.82c3,1.89,6,4,9,6l4.45,3.09c1.48,1,3,2.05,4.42,3.17l8.77,6.6,2.18,1.67,2.16,1.76,4.32,3.54c5.77,4.61,11.38,9.8,17,14.9,2.79,2.61,5.51,5.4,8.24,8.13l4.09,4.14c1.35,1.41,2.66,2.91,4,4.37q4,4.42,7.9,8.92,3.81,4.71,7.58,9.52c1.25,1.62,2.53,3.18,3.73,4.87l3.59,5.09,3.56,5.15c1.17,1.73,2.39,3.44,3.48,5.25,2.22,3.58,4.46,7.19,6.59,10.86s4.08,7.4,6.09,11.16c15.54,30.16,25.59,63,30.56,97.15.74,3.75,1.56,7.69,2.52,11.81s1.84,8.32,2.88,12.68l2.95,13.22c.92,4.43,2,9,2.82,13.44l1.32,6.71c.43,2.23.8,4.42,1.19,6.62.79,4.39,1.46,8.73,2,13a205,205,0,0,1,2.06,24.08c-.27,12-.81,24.2-1.93,36.62s-2.65,25-4.82,37.74-5,25.65-8.51,38.58a373.09,373.09,0,0,1-13,38.79,332.34,332.34,0,0,1-17.67,37.26,367.78,367.78,0,0,1-21,33.61,459.61,459.61,0,0,1-47,56.27c-16.16,16.62-32.44,31.41-48.25,45.11s-31.23,26.36-45.83,38.53c-7.3,6.07-14.43,12.07-21.19,17.85s-13.48,11.77-20,17.76-13,12-19.21,18.18-12.38,12.34-18.27,18.65c-4.76,6.33-10.88,11.6-17.43,16.64s-13.74,9.78-20.5,14.93-13.3,10.62-18.39,16.9-9,13.29-10.31,21.2c-2.87,44.12-1.22,80.72,8.76,116.28a7.85,7.85,0,0,1-.72,3.46,19.7,19.7,0,0,1-2.08,3.77c-.89,1.32-1.95,2.71-3.09,4.18l-1.76,2.28c-.58.78-1.14,1.59-1.71,2.42-1.13,1.66-2.26,3.42-3.28,5.29a30.84,30.84,0,0,0-2.61,5.92,30.12,30.12,0,0,0-1.29,6.56,21.73,21.73,0,0,0,0,3.51,27.9,27.9,0,0,0,.58,3.64c.38,2.42.74,4.84,1.2,7.24l1.6,7.18c.28,1.19.53,2.39.85,3.57l1,3.55c.68,2.36,1.37,4.71,2.09,7.05l2.45,7,1.25,3.46,1.4,3.42,2.85,6.8c1,2.25,2.09,4.47,3.15,6.69,2.05,4.45,4.46,8.8,6.78,13.13,1.13,2.17,2.46,4.29,3.69,6.42s2.48,4.24,3.79,6.34l4,6.23,2,3.1,2.1,3.06,4.19,6.08c1.4,2,2.91,4,4.35,6,11.66,15.88,24.24,31,37.06,45.81s25.73,29.47,38.2,44.59c-1.11-4.79-2.4-9.41-3.67-14-22.77-31.85-42.82-64.35-58.13-96.95l-2.87-6.1-2.68-6.11c-1.85-4.05-3.42-8.13-5.1-12.18-.86-2-1.59-4.05-2.35-6.08l-2.28-6.06-2.07-6.05-1-3-.52-1.51-.46-1.51A303.72,303.72,0,0,1,826.64,1572.69Z"/><path class="d" d="M992.94,1859.68c.31.86.57,1.75.86,2.62l-5.31-6-5.21-6-10.42-12c-3.45-4-6.82-8.12-10.23-12.16s-6.88-8.12-10.08-12.11c-13.07-16-25.6-32.17-37.27-48.5,1.27,4.61,2.56,9.23,3.67,14,7.46,9,14.67,18.12,21.73,27.57,3.47,4.76,7,9.54,10.3,14.49q5.22,7.46,10.05,15.32c3.31,5.65,6.93,11.25,10.63,16.87,3.79,2.68,7.74,5.33,11.82,7.94s8.37,5.1,12.67,7.63c.56,1.72,1.18,3.37,1.7,5.12,7.28,21.28,27.29,40.15,54,56.44-4-5.36-8-10.77-11.76-16.11-3.56-5-7.21-9.91-11-14.65-1.89-2.38-3.82-4.71-5.76-7s-3.86-4.66-5.83-6.95c-3.93-4.58-8-9-12.1-13.42S997.19,1863.95,992.94,1859.68Z"/><path class="e" d="M827.78,1972.36q-4.39-7.64-8.93-14.49-2.27-3.43-4.58-6.69l-2.34-3.28-2.37-3.26c-3.18-4.28-6.4-8.37-9.62-12.36q-2.43-3-4.88-5.83c-1.63-1.91-3.26-3.82-4.9-5.67-13.14-14.85-26.69-28-40.25-41.51s-27.1-27.61-39.82-44.38A245.9,245.9,0,0,1,676,1774.21q-10.77-26.41-20.94-53.18c-6.72-17.9-13.22-36-19-54.6s-11-37.65-15.34-57.21l-1.57-7.36c-.52-2.45-1.06-4.9-1.48-7.4l-2.67-15-2.17-15.16c-.39-2.52-.63-5.09-.91-7.64l-.81-7.68a449.12,449.12,0,0,0,5.79,69.07A495.65,495.65,0,0,0,632,1683c12.64,41.67,29.63,79.88,48.87,115.15A766.76,766.76,0,0,0,744.71,1896q17.25,22.6,35.51,43.6l9.17,10.41,9.28,10.22c1.57,1.73,3.07,3.3,4.6,4.94l4.58,4.86,9.2,9.69C818.16,1975.62,821.07,1972.59,827.78,1972.36Z"/><path class="f" d="M1164.12,2138.09a147,147,0,0,1-42.21-15.6c-3.7-2-7.47-4.19-11.26-6.62s-7.6-5.09-11.49-7.94-7.86-5.87-11.8-9.22-8-6.89-12-10.68c-27.27-25.89-48.83-53.44-68.92-79.62s-38.77-51.07-60.67-72.49c-14.6-15.75-30.07-31.13-45.79-46.71-15.84-15.43-32-31.23-48.17-47.48s-32.11-33.15-47.55-50.91a593.73,593.73,0,0,1-43.7-56.41A406.61,406.61,0,0,1,724.94,1671,304.2,304.2,0,0,1,703,1600.77c-.61-3-1-6.08-1.44-9.12s-.86-6.09-1.18-9.14-.53-6.13-.76-9.19l-.32-4.58-.13-4.61q-.11-4.6-.15-9.17c0-3.06.19-6.12.32-9.16.17-6.08.92-12.15,1.59-18.15l.27-2.25.37-2.24.77-4.47c.54-3,1-5.92,1.69-8.85s1.42-5.84,2.17-8.72l1.14-4.31c.43-1.43.9-2.85,1.35-4.26a182.63,182.63,0,0,1,13.6-32.4c19.46-38.06,41.83-72.5,66.58-106.06q18.6-25.12,39.07-49.54t42.7-48.43c29.58-31.91,62-63.37,91.8-97.9a516.22,516.22,0,0,0,41.57-54.53,310.82,310.82,0,0,0,31.28-61,106.71,106.71,0,0,0,4.07-13.66,147.59,147.59,0,0,0,2.42-14.93,215.84,215.84,0,0,0,1-31.51c-.4-10.59-1.31-21.07-2.17-31.09s-1.75-19.59-1.87-28.45c-.29-14.76-1.2-29.44-2.66-43.8a405.31,405.31,0,0,0-6.51-42.1,301.63,301.63,0,0,0-11.16-39.74A230.77,230.77,0,0,0,1001.64,761,223.78,223.78,0,0,0,979,728.76a287.28,287.28,0,0,0-27.7-28.18c-2.51-2.16-4.94-4.38-7.5-6.49l-7.7-6.28c-5.26-4.06-10.5-8.12-16-11.95q-16.25-11.6-33.46-22.1c-4.45-2.73-8.64-5.38-12.56-8S866.48,640.53,863,638s-6.74-5.1-9.86-7.58-6.06-5-8.85-7.44c-5.59-4.94-10.61-9.9-15.44-14.8s-9.52-9.65-14.3-14.49a230.76,230.76,0,0,0-33.24-28.59c-13.56-9.27-30.43-18.54-53.51-27.05-2.78-1.27-5.86-3.74-9.14-6.71s-6.75-6.48-10.22-10c-6.95-7.06-13.94-14.22-19.64-16.58C557,451.9,419.47,408.15,280.7,369.87s-278.84-71.48-416-104A130.87,130.87,0,0,0-143.69,311c95.23,15.85,190.52,39.49,283,66.59s181.95,57.71,266.44,86.76l21.22,7.85,21.16,7.92L458.7,484l10.55,4,21.12,7.91c14,5.41,28.11,10.6,42.08,16.1l10.5,4c3.5,1.34,7,2.68,10.48,4.08l20.92,8.25c27.81,11.16,55.58,22.36,83,34.31l10.31,4.42,10.25,4.55,20.49,9.11,20.34,9.41c3.39,1.58,6.79,3.11,10.16,4.72L739,599.74c27,12.8,53.49,26.52,79.72,40.7l19.55,10.84c3.28,1.8,6.48,3.64,9.68,5.49l4.8,2.77,4.73,2.8c12.62,7.47,24.88,15.16,36.58,23.23,23.38,16.12,44.5,34,61.15,54a186.45,186.45,0,0,1,21.33,31.52,190.21,190.21,0,0,1,14,35.07c6.85,23.06,10.38,48.43,11.83,74.92.72,13.23.91,27,.62,40.27s-1.13,26.45-2.71,39.15a296.06,296.06,0,0,1-6.82,36.76A218.14,218.14,0,0,1,982,1030.76c-9.28,21.32-22.52,41.89-38.28,62.24a53.34,53.34,0,0,1,7.87,5.49A230.31,230.31,0,0,0,927,1113.72c-3,3.47-5.92,6.91-9,10.38-2.41,4.7-5.53,8.75-9.81,11,3.25-3.68,6.63-7.32,9.81-11a55.33,55.33,0,0,0,2.6-5.8c-16.67,12.49-32.62,27.39-48,43.88A618.89,618.89,0,0,0,829,1215c-6.76,9.11-13.14,18.15-19.21,26.89s-11.81,17.22-17.37,25.13-10.88,15.36-16.21,22a158.63,158.63,0,0,1-15.91,17.65,287.21,287.21,0,0,0-49.93,61.6A294,294,0,0,0,677,1448c-.89,3.64-1.83,7.26-2.56,11s-1.56,7.38-2.15,11.12c-1.38,7.46-2.15,15-3.05,22.54-.33,3.78-.56,7.57-.82,11.36-.12,1.9-.26,3.79-.34,5.69l-.11,5.69c0,3.79-.16,7.6-.09,11.38l.39,11.35.11,2.84c.05.94.14,1.88.21,2.82l.46,5.64c.33,3.76.59,7.53,1.13,11.24l1.48,11.16c.59,3.69,1.26,7.36,1.91,11,.34,1.83.64,3.67,1,5.49l1.19,5.43c.82,3.6,1.56,7.24,2.48,10.8l2.83,10.63.72,2.65.8,2.61,1.6,5.21c2.05,7,4.54,13.73,6.9,20.5,1.25,3.35,2.56,6.65,3.85,10l1.94,5,2.07,4.86c1.39,3.23,2.75,6.48,4.16,9.67l4.39,9.46c1.43,3.17,3,6.23,4.52,9.3s3,6.16,4.62,9.16a747.77,747.77,0,0,0,40.29,67.61c14,21,28,40.81,41.55,59.61s26.42,36.77,38.12,54.21c3.13,4.31,6.33,8.5,9.5,12.71s6.42,8.28,9.63,12.39c6.43,8,12.8,15.89,19.27,23.59l9.78,11.4c3.27,3.77,6.5,7.54,9.84,11.17l9.94,10.89,5,5.38,5,5.26a816.37,816.37,0,0,0,82.52,75.56,665.5,665.5,0,0,0,85.81,58.1,538.32,538.32,0,0,0,87.8,39.89A123,123,0,0,1,1164.12,2138.09Z"/><path class="g" d="M1194.58,2076.3c-1.35-6.42-2.69-12.07-3.88-16.52-27.35-7.38-55.51-19.22-83.58-34.66s-56.07-34.48-83.2-56.07a851.33,851.33,0,0,1-78.33-71.21q-9.26-9.63-18.42-19.34c-6-6.57-12-13.13-17.88-19.73q-17.52-19.82-33.51-40.23c-3.82-4.6-6.75-13.84-9.61-24.79l-4.38-17.34c-1.47-6-3.22-12-5.09-17.78-1.73-3.21-3.61-6.2-5.44-9.1s-3.76-5.64-5.75-8.24-3.93-5.14-6-7.53c-1-1.2-2.07-2.37-3.11-3.52s-2.06-2.3-3.11-3.41c-8.48-8.87-17.2-16.61-25.81-24.26-8.42-7.73-16.69-15.4-23.38-24.2a76.93,76.93,0,0,1-14.75-30.18q-4.43-18.94-7.33-37.76-2.72-18.84-3.7-37.4a356.92,356.92,0,0,1,.3-36.69,322.32,322.32,0,0,1,4.49-35.61l1.8-8.7.44-2.17.53-2.15,1-4.29c.7-2.85,1.55-5.68,2.29-8.52l2.56-8.44a320.08,320.08,0,0,1,12.69-33,398.07,398.07,0,0,1,35.33-62.26,599,599,0,0,1,45.43-57.78q12.35-13.94,25.48-27.45c8.74-9,17.67-17.83,27-26.86,18.62-18,38.2-36.39,57.61-56.26s38.65-41.29,55.95-65.55c4.35-6,8.48-12.32,12.53-18.68s7.87-13,11.45-19.79a285.3,285.3,0,0,0,18.62-42.61c10.17-29.57,15-59.85,16.4-89.25.72-14.72.58-29.27-.14-43.61s-2-28.42-3.83-42.53c-3.62-28.22-9.43-56.79-19.14-84.76a298.9,298.9,0,0,0-17.72-41.1c-3.49-6.67-7.32-13.21-11.41-19.59-.51-.8-1-1.61-1.52-2.39l-1.62-2.33-3.24-4.65c-1.09-1.54-2.15-3.1-3.26-4.62l-3.46-4.44c-4.52-6-9.47-11.57-14.37-17.14l-7.64-8c-1.25-1.36-2.59-2.6-3.91-3.87l-4-3.8a367.64,367.64,0,0,0-33.15-27.74c-11.44-8.46-23.12-16.29-34.92-23.66s-23.76-14.18-35.71-20.79l-9-4.9-9-4.79-18-9.34-9-4.67-4.48-2.34-4.52-2.26-18.06-9.07c-5.45-2.87-7.13-6.32-7.08-10.23s1.89-8.37,3.48-13.19c3.17-9.64,5.36-20.8-9.91-32.56-43.48-25.65-86.61-44.9-127.94-64s-81-38.07-118.9-63c-4.73-5.49-17.86-6.17-34.44-6.07-16.63.27-36.66,1.24-55.57-.85q-6.42-1-12.76-2.09c-4.23-.72-8.43-1.45-12.61-2.24-8.35-1.56-16.59-3.37-24.76-5.21s-16.26-3.8-24.27-5.91-16-4.22-23.87-6.52q-5.92-1.7-11.81-3.49l-11.75-3.54c-7.82-2.39-15.59-4.88-23.34-7.4-15.52-4.92-30.93-10.19-46.37-15.24S246.54,322.79,231,317.88c-7.78-2.42-15.58-4.75-23.42-7.05-3.92-1.14-7.85-2.29-11.79-3.39l-11.85-3.2c-31.69-8.43-64.15-15.09-98-18.56-36.76-2.32-72.44-9.17-108-16.33s-71.07-14.67-107.23-18.18c-2.28,4.87-4.26,9.77-6,14.69,137.2,32.53,277.25,65.71,416,104S557,451.9,688.79,504.74c5.71,2.36,12.69,9.52,19.64,16.58,3.47,3.54,6.93,7.07,10.22,10s6.36,5.44,9.14,6.71a192.36,192.36,0,0,1,23.51,10.49,167.86,167.86,0,0,1,18.4,11.7c2.76,2,5.41,4.07,8,6.17s5,4.31,7.41,6.51c4.84,4.41,9.52,9,14.39,13.65,2.45,2.33,4.9,4.76,7.44,7.24s5.18,5,7.94,7.53,5.66,5.14,8.72,7.76l4.73,4q2.41,2.05,5,4.14c6.83,5.58,14.56,11.27,23.4,17.29s18.72,12.41,30,19.27q17.52,10.69,33.86,22.38A362.41,362.41,0,0,1,951.7,701a286.64,286.64,0,0,1,27.51,28.1,221.31,221.31,0,0,1,22.47,32,231.86,231.86,0,0,1,16.66,36.08,300.56,300.56,0,0,1,11.14,39.53,408,408,0,0,1,6.56,42.13c1.47,14.43,2.41,29.25,2.7,44.23.12,8.86,1,18.43,1.87,28.45s1.78,20.49,2.17,31.09a215.84,215.84,0,0,1-1,31.51,147.59,147.59,0,0,1-2.42,14.93,106.71,106.71,0,0,1-4.07,13.66,310.82,310.82,0,0,1-31.28,61,516.22,516.22,0,0,1-41.57,54.53c-29.8,34.52-62.22,66-91.8,97.9q-22.2,24-42.7,48.43t-39.07,49.54c-24.75,33.56-47.12,68-66.58,106.06a182.63,182.63,0,0,0-13.6,32.4c-.46,1.41-.92,2.83-1.35,4.26l-1.14,4.31q-1.12,4.33-2.17,8.72c-.66,2.93-1.15,5.88-1.69,8.85l-.77,4.47-.37,2.24-.27,2.25c-.68,6-1.43,12.07-1.59,18.15-.13,3-.27,6.1-.32,9.16s.08,6.11.15,9.17l.13,4.61.32,4.58q.35,4.59.76,9.19c.32,3.06.77,6.09,1.18,9.14s.83,6.11,1.44,9.12A304.2,304.2,0,0,0,724.94,1671a406.61,406.61,0,0,0,35.59,63.42,593.73,593.73,0,0,0,43.7,56.41c15.44,17.75,31.41,34.66,47.55,50.91s32.33,32,48.17,47.48c15.72,15.59,31.19,31,45.79,46.71,21.9,21.42,40.56,46.27,60.67,72.49s41.66,53.73,68.92,79.62q6.1,5.68,12,10.68c3.94,3.35,7.93,6.35,11.8,9.22s7.72,5.49,11.49,7.94,7.56,4.6,11.26,6.62a147,147,0,0,0,42.21,15.6c-6.05-15.25-7.74-29.53-6-42.62a76.8,76.8,0,0,1,14.18-35l10.07,7.28Z"/><path class="h" d="M1187.76,2049.08l-15.33-12.71-15.11-12.9c-37.59-20.27-73.35-46.39-105.06-75.53-4-3.61-7.86-7.34-11.67-11.09s-7.59-7.52-11.3-11.32-7.26-7.73-10.8-11.61-7-7.77-10.38-11.76c-6.71-8-13.24-15.87-19.26-24q-4.55-6.07-8.9-12.13c-2.86-4.07-5.6-8.17-8.29-12.25q-4.79-3.4-9.28-6.85c-3-2.33-5.79-4.71-8.51-7.1s-5.31-4.8-7.77-7.23c-1.23-1.22-2.44-2.44-3.58-3.66s-2.22-2.45-3.27-3.68c-8.48-9.84-14.33-20.21-16.94-30.91-1-5.08-2.19-9.95-3.36-14.8-12.47-15.12-25.4-29.75-38.2-44.59s-25.4-29.92-37.06-45.81c-1.44-2-2.95-4-4.35-6l-4.19-6.08L833,1674l-2-3.1-4-6.23c-1.31-2.09-2.53-4.21-3.79-6.34s-2.56-4.25-3.69-6.42c-2.31-4.33-4.73-8.67-6.78-13.13-1.05-2.22-2.14-4.45-3.15-6.69l-2.85-6.8-1.4-3.42-1.25-3.46-2.45-7c-.73-2.34-1.41-4.69-2.09-7.05l-1-3.55c-.32-1.19-.57-2.38-.85-3.57l-1.6-7.18c-.46-2.4-.81-4.82-1.2-7.24a27.9,27.9,0,0,1-.58-3.64,21.73,21.73,0,0,1,0-3.51,30.12,30.12,0,0,1,1.29-6.56,30.84,30.84,0,0,1,2.61-5.92c1-1.87,2.15-3.63,3.28-5.29.57-.83,1.13-1.64,1.71-2.42l1.76-2.28c1.14-1.47,2.2-2.86,3.09-4.18a19.7,19.7,0,0,0,2.08-3.77,7.85,7.85,0,0,0,.72-3.46c-10-35.56-11.63-72.16-8.76-116.28,1.31-7.91,5.21-14.93,10.31-21.2s11.63-11.77,18.39-16.9,13.94-9.9,20.5-14.93,12.67-10.31,17.43-16.64c5.89-6.31,12-12.52,18.27-18.65s12.64-12.2,19.21-18.18,13.24-11.9,20-17.76,13.89-11.78,21.19-17.85c14.6-12.17,30-24.83,45.83-38.53s32.09-28.5,48.25-45.11a459.61,459.61,0,0,0,47-56.27,367.78,367.78,0,0,0,21-33.61,332.34,332.34,0,0,0,17.67-37.26,373.09,373.09,0,0,0,13-38.79c3.5-12.93,6.29-25.82,8.51-38.58s3.7-25.32,4.82-37.74,1.65-24.59,1.93-36.62a205,205,0,0,0-2.06-24.08c-.58-4.24-1.25-8.58-2-13-.39-2.2-.76-4.39-1.19-6.62l-1.32-6.71c-.85-4.45-1.9-9-2.82-13.44l-2.95-13.22c-1-4.36-2-8.59-2.88-12.68s-1.78-8.06-2.52-11.81c-5-34.14-15-67-30.56-97.15q-3-5.64-6.09-11.16c-2.13-3.67-4.38-7.28-6.59-10.86-1.09-1.81-2.31-3.51-3.48-5.25l-3.56-5.15-3.59-5.09c-1.2-1.68-2.49-3.25-3.73-4.87q-3.77-4.81-7.58-9.52-3.93-4.51-7.9-8.92c-1.33-1.46-2.64-3-4-4.37l-4.09-4.14c-2.74-2.73-5.46-5.53-8.24-8.13-5.6-5.11-11.21-10.3-17-14.9l-4.32-3.54-2.16-1.76-2.18-1.67-8.77-6.6c-1.47-1.12-2.94-2.15-4.42-3.17l-4.45-3.09c-3-2.06-6-4.15-9-6l-9-5.82L978,592.67q-18.3-10.91-37.25-20.64c-12.62-6.53-25.51-12.91-38.57-19.18L890.44,547q-5.83-2.92-11.58-5.91l-22.84-12q-5.67-3-11.28-6.08l-5.6-3.08-5.62-3q-11.23-6.05-22.3-12.3L789,492.31l-11.07-6.24L766.79,480l-11.12-6.18c-3.71-2.06-7.41-4.16-11.15-6.16L722,455.45c-30.14-16-61-31.71-93.45-45.88a822.41,822.41,0,0,0-102.93-37.25c-9.55-1.24-19.84-5.17-30.56-10.35S473.23,350.39,462,344.06c-5.61-3.15-11.22-6.3-16.79-9.29s-11.09-5.82-16.52-8.23c-10.86-4.84-21.3-8.49-30.88-9.29-62.42-10.25-117.17-22.51-170.1-35.18S123.78,256.19,69.36,244.83c-24.22-5-49.78-2.79-73.94-7.58-41.34-4-77.55-13.8-114.54-21.42l-4.6,24.49c-2,3.58-3.86,7.2-5.59,10.85,36.16,3.51,71.65,11,107.23,18.18s71.27,14,108,16.33c33.83,3.47,66.29,10.13,98,18.56l11.85,3.2c3.94,1.1,7.87,2.24,11.79,3.39,7.84,2.3,15.64,4.63,23.42,7.05q23.32,7.36,46.44,15.06c15.44,5,30.85,10.31,46.37,15.24,7.75,2.52,15.53,5,23.34,7.4l11.75,3.54q5.89,1.78,11.81,3.49c7.9,2.3,15.87,4.38,23.87,6.52s16.1,4.09,24.27,5.91,16.4,3.64,24.76,5.21c4.17.79,8.38,1.52,12.61,2.24s8.47,1.44,12.76,2.09c18.91,2.09,38.94,1.12,55.57.85,16.58-.1,29.7.58,34.44,6.07,37.87,25,77.51,43.94,118.9,63s84.46,38.36,127.94,64c15.27,11.76,13.08,22.92,9.91,32.56-1.59,4.82-3.42,9.26-3.48,13.19s1.64,7.36,7.08,10.23l18.06,9.07,4.52,2.26,4.48,2.34,9,4.67,18,9.34,9,4.79,9,4.9c12,6.61,23.89,13.46,35.71,20.79s23.49,15.21,34.92,23.66a367.64,367.64,0,0,1,33.15,27.74l4,3.8c1.32,1.27,2.66,2.52,3.91,3.87l7.64,8c4.9,5.57,9.85,11.13,14.37,17.14l3.46,4.44c1.11,1.52,2.17,3.08,3.26,4.62l3.24,4.65,1.62,2.33c.53.78,1,1.6,1.52,2.39,4.09,6.38,7.91,12.92,11.41,19.59a298.9,298.9,0,0,1,17.72,41.1c9.71,28,15.52,56.54,19.14,84.76,1.79,14.11,3.1,28.16,3.83,42.53s.86,28.89.14,43.61c-1.43,29.4-6.23,59.68-16.4,89.25a285.3,285.3,0,0,1-18.62,42.61c-3.58,6.81-7.48,13.33-11.45,19.79s-8.19,12.67-12.53,18.68c-17.3,24.26-36.58,45.66-55.95,65.55s-39,38.24-57.61,56.26c-9.33,9-18.26,17.84-27,26.86s-17.25,18.16-25.48,27.45a599,599,0,0,0-45.43,57.78,398.07,398.07,0,0,0-35.33,62.26,320.08,320.08,0,0,0-12.69,33l-2.56,8.44c-.75,2.83-1.59,5.66-2.29,8.52l-1,4.29-.53,2.15-.44,2.17-1.8,8.7a322.32,322.32,0,0,0-4.49,35.61,356.92,356.92,0,0,0-.3,36.69q1,18.54,3.7,37.4,2.91,18.79,7.33,37.76a76.93,76.93,0,0,0,14.75,30.18c6.7,8.8,15,16.47,23.38,24.2,8.61,7.66,17.33,15.4,25.81,24.26q1.57,1.67,3.11,3.41c1,1.15,2.09,2.32,3.11,3.52,2.06,2.39,4,4.91,6,7.53s3.91,5.35,5.75,8.24,3.71,5.89,5.44,9.1c1.87,5.8,3.62,11.77,5.09,17.78l4.38,17.34c2.86,11,5.79,20.19,9.61,24.79q15.92,20.36,33.51,40.23c5.89,6.59,11.88,13.16,17.88,19.73s12.24,12.92,18.42,19.34a851.33,851.33,0,0,0,78.33,71.21c27.13,21.59,55.12,40.64,83.2,56.07s56.24,27.28,83.58,34.66c-.87-3.29-1.6-6-2.11-7.82Z"/><path class="e" d="M960.43,868.88c1.52,10.43,2.57,21.4,3.21,32.82s.83,22.74.45,33.67c-.73,21.87-3.77,42.43-9.45,60.33-.29,1.14-.94,3-1.75,5.51-.38,1.28-1,2.6-1.53,4.12l-.89,2.37-1.07,2.47c2.15-4.36,4-9.11,5.86-14,1.7-5,3.41-10.08,4.75-15.54s2.55-11.1,3.6-16.89,1.74-11.88,2.2-18.11.75-12.57.83-19-.17-13-.65-19.67A226.64,226.64,0,0,0,960.43,868.88Z"/><path class="e" d="M914.71,1062.89c-7.73,8.91-16.7,18.24-26.42,27.7s-20.17,19.05-30.61,28.47l-30.59,27.45c-9.7,8.76-18.52,16.88-26,24l14.76-8.6,7.23-4.26,7.13-4.27c9.45-5.71,18.64-11.51,27.53-17.6,17.75-12.15,34.41-25.5,48.66-41,0,0,.21-1.54.62-4s1-5.72,1.69-9.23C910.15,1074.57,912,1066.76,914.71,1062.89Z"/><path class="i" d="M889.57,2048.54a1043.79,1043.79,0,0,0,114.4,86.59l15.24,9.81c5.14,3.2,10.32,6.35,15.51,9.49,10.33,6.34,21,12.31,31.59,18.3,5.31,3,10.75,5.83,16.14,8.71l8.13,4.28q4.06,2.15,8.2,4.2c11,5.48,22,11,33.34,16-39.5-29-79.35-55.69-119.83-81.4S930.85,2074,889.57,2048.54Z"/><path class="e" d="M1170.69,2151.3a538.32,538.32,0,0,1-87.8-39.89,665.5,665.5,0,0,1-85.81-58.1,816.37,816.37,0,0,1-82.52-75.56l-5-5.26-5-5.38-9.94-10.89c-3.34-3.64-6.57-7.41-9.84-11.17l-9.78-11.4c-6.47-7.7-12.85-15.62-19.27-23.59-3.21-4.1-6.43-8.21-9.63-12.39s-6.37-8.4-9.5-12.71c-11.7-17.45-24.61-35.4-38.12-54.21s-27.59-38.56-41.55-59.61a747.77,747.77,0,0,1-40.29-67.61c-1.59-3-3.08-6.1-4.62-9.16s-3.09-6.14-4.52-9.3l-4.39-9.46c-1.42-3.19-2.77-6.44-4.16-9.67l-2.07-4.86-1.94-5c-1.28-3.31-2.6-6.62-3.85-10-2.36-6.78-4.84-13.52-6.9-20.5l-1.6-5.21-.8-2.61-.72-2.65-2.83-10.63c-.93-3.56-1.66-7.19-2.48-10.8l-1.19-5.43c-.37-1.82-.68-3.66-1-5.49-.65-3.67-1.32-7.34-1.91-11l-1.48-11.16c-.54-3.71-.8-7.48-1.13-11.24l-.46-5.64c-.07-.94-.16-1.88-.21-2.82l-.11-2.84-.39-11.35c-.08-3.79,0-7.59.09-11.38l.11-5.69c.09-1.9.22-3.79.34-5.69.26-3.79.49-7.58.82-11.36.9-7.54,1.67-15.08,3.05-22.54.59-3.75,1.39-7.43,2.15-11.12s1.67-7.33,2.56-11a294,294,0,0,1,33.33-79.71,287.21,287.21,0,0,1,49.93-61.6A158.63,158.63,0,0,0,776.16,1289c5.33-6.65,10.64-14.09,16.21-22s11.3-16.39,17.37-25.13S822.2,1224.1,829,1215a618.89,618.89,0,0,1,43.72-52.81c15.4-16.5,31.34-31.39,48-43.88,3.11-8.1,4.82-16.84,7.72-22.27s7-7.67,15.34-3c15.75-20.35,29-40.92,38.28-62.24a218.14,218.14,0,0,0,11.43-33.47,296.06,296.06,0,0,0,6.82-36.76c1.58-12.7,2.39-25.82,2.71-39.15s.1-27-.62-40.27c-1.46-26.49-5-51.86-11.83-74.92a190.21,190.21,0,0,0-14-35.07,186.45,186.45,0,0,0-21.33-31.52c-16.65-20.05-37.77-37.92-61.15-54-11.71-8.07-24-15.75-36.58-23.23l-4.73-2.8-4.8-2.77c-3.2-1.85-6.4-3.69-9.68-5.49l-19.55-10.84C792.48,626.26,766,612.55,739,599.74l-10.09-4.86c-3.37-1.61-6.77-3.14-10.16-4.72l-20.34-9.41-20.49-9.11-10.25-4.55-10.31-4.42c-27.42-11.94-55.19-23.15-83-34.31l-20.92-8.25c-3.48-1.4-7-2.74-10.48-4.08l-10.5-4c-14-5.49-28.06-10.69-42.08-16.1L469.26,488l-10.55-4-10.59-3.92-21.16-7.92-21.22-7.85c-84.49-29-173.94-59.71-266.44-86.76s-187.74-50.74-283-66.59c.25,42.69,26.21,79,87.93,91.14,119.72,35,229.34,64.82,333.2,94.7L316.13,508l19.14,5.66c6.37,1.86,12.73,3.72,19,5.65L373.23,525c6.31,1.87,12.54,3.85,18.8,5.75s12.52,3.79,18.72,5.75l18.6,5.85c49.54,15.56,98,32,146,49.67a923,923,0,0,1,109.13,35.51c8.76,3.58,17.53,7.15,26.13,11s17.11,7.83,25.56,11.89,16.67,8.49,24.89,12.87,16.2,9.13,24.18,13.83a856.78,856.78,0,0,0-108-42.12c42.29,18.25,84,37.82,125.15,59.28l7.73,4c2.56,1.34,5.21,2.68,7.67,4l7.52,4.05,7.35,4.06c9.71,5.42,19.17,10.86,28,16.44l3.36,2.08,3.23,2.11c2.14,1.41,4.36,2.8,6.44,4.23l6.21,4.28c1.06.71,2,1.44,3,2.16l3,2.18,3,2.17,2.82,2.21c1.86,1.48,3.81,2.93,5.61,4.42l5.33,4.48c.92.74,1.73,1.5,2.56,2.27l2.5,2.28c-1.34-1.66-2.69-3.28-4.13-4.95,1.67,1.47,3.17,3,4.78,4.44l2.39,2.21,2.19,2.26,2.21,2.25c.72.75,1.53,1.48,2.17,2.25l4.07,4.56c.34.38.7.75,1,1.14l.92,1.16,1.86,2.31,1.88,2.3c.62.77,1.12,1.57,1.7,2.35,1.1,1.57,2.3,3.11,3.36,4.68s2,3.19,3,4.77c5.87,7.22,10.6,16,14.53,25.91,1,2.42,1.85,5.07,2.75,7.64.47,1.27.81,2.67,1.22,4s.8,2.68,1.17,4.05c1.41,5.56,2.72,11.21,3.67,17.2s1.75,12.1,2.39,18.33,1,12.71,1.18,19.28l.15,4.92.07,5c.08,3.31,0,6.65,0,10s-.13,6.56-.24,9.79-.23,6.43-.47,9.54a286.06,286.06,0,0,1-2.59,31.2c-.35,2.92-.9,5.77-1.38,8.74-.22,1.5-.58,2.91-.85,4.39s-.54,3-.92,4.42c-1.29,5.89-2.94,11.67-4.73,17.37-.23,1-.67,2.91-1.25,5.67s-1.54,6.13-2.8,9.9c-.54,1.93-1.38,3.95-2.13,6.1l-1.35,3.3c-.43,1.13-1,2.28-1.51,3.45a131.39,131.39,0,0,1-7.89,14.91,169.88,169.88,0,0,1-24.11,30.7A150.92,150.92,0,0,1,895.9,1082a86.71,86.71,0,0,1-13.36,8.87c-7.81,7.62-13.87,13.23-16.18,15.55-18.89,17.3-39.77,35-61.64,54.72l-4.11,3.73-4.18,3.84c-2.79,2.54-5.55,5.16-8.32,7.74s-5.51,5.25-8.26,7.86l-8.2,8q-16.33,16.12-32.06,33.39a644.74,644.74,0,0,0-59.12,75.21A486.93,486.93,0,0,0,633,1390.56c-2.9,9.7-5.41,19.65-7.77,29.66s-4.32,20.23-5.94,30.58c-.4,2.59-.87,5.15-1.22,7.75l-1.07,7.81c-.38,2.6-.65,5.21-.92,7.81l-.82,7.82c-.25,2.61-.59,5.21-.76,7.83l-.54,7.85-.54,7.86c-.18,2.62-.21,5.23-.32,7.85a583,583,0,0,0,.87,62.82c1.36,20.86,3.65,41.59,6.57,62.24q.69,5.31,1.52,10.79c.57,3.63,1.29,7.23,2,10.92,1.37,7.41,3.19,14.73,5.09,22.21l.72,2.81.79,2.76,1.62,5.55,1.66,5.58.85,2.79.91,2.75q1.84,5.49,3.76,11c.63,1.85,1.3,3.66,2,5.46l2.07,5.4c2.73,7.27,5.75,14.25,8.77,21.24,1.5,3.51,3.12,6.85,4.69,10.25s3.14,6.79,4.81,10c3.29,6.52,6.54,13,9.93,19.08,1.68,3.06,3.33,6.13,5,9.08l5,8.67c13.32,22.7,26.16,41.3,35.48,54.51s15.1,21.18,14.74,22.19c10.95,14.15,22.31,27.7,34,40.79s23.6,25.72,35.8,37.92c39.5,28.16,78.77,55.72,117.37,84.16s76.7,57.61,114.1,89.28c11.29,6,22.58,12,34.19,17.65,5.79,2.82,11.55,5.69,17.43,8.39s11.78,5.39,17.7,8c5.34,2.43,10.5,4.39,15.34,6.1s9.43,3.1,13.75,4.21a98,98,0,0,0,23,3.26c13.4.17,23.15-3.61,30.05-9.75A134.45,134.45,0,0,1,1170.69,2151.3Z"/></g></g></g><g class="a"><g class="b"><g class="b"><path class="j" d="M148.92,1756q-26.54-31.62-54.38-62.82t-57.69-61.39l-7.47-7.54c-2.48-2.52-5-5-7.54-7.5L6.59,1601.91-9,1587.24l-3.9-3.66-4-3.61-8-7.21-8-7.2-8.14-7.08c-5.46-4.71-10.77-9.46-16.42-14.12l-8.38-7-8.56-6.95-4.29-3.47-4.38-3.43-8.77-6.86-9-6.77-4.5-3.38c-1.5-1.12-3.06-2.22-4.59-3.33l-9.22-6.64c-3.1-2.2-6.29-4.35-9.44-6.52-6.24-4.37-12.82-8.56-19.29-12.79-3.24-2.12-6.63-4.13-9.95-6.2s-6.62-4.14-10.08-6.1c-27.24-16-56.33-30.67-87.8-42.41-3.94-1.46-7.84-3-11.82-4.34l-12.07-4c-2-.65-4-1.34-6.06-1.95l-6.17-1.77-12.37-3.49a436.19,436.19,0,0,0-52.06-10.19,421.26,421.26,0,0,0-53.36-3.68h-6.75l-6.77.15c-4.51.07-9.05.37-13.58.58-9.09.61-18.19,1.39-27.34,2.63,10.33-.28,20.49-.06,30.48.49s19.8,1.53,29.43,2.74,19.06,2.87,28.31,4.7,18.29,4,27.13,6.42c2.22.57,4.41,1.2,6.6,1.84l6.53,1.91c4.32,1.36,8.6,2.66,12.82,4.13,2.11.72,4.22,1.42,6.3,2.16l6.22,2.26c2.1.74,4,1.54,6,2.33l5.89,2.36c7.88,3,15.34,6.51,22.74,9.78l2.76,1.24,2.7,1.31,5.36,2.6,5.31,2.58c1.77.85,3.52,1.7,5.21,2.61,41.3,21.4,78.61,45.4,114,70.09,17.67,12.36,34.84,24.94,51.66,37.61l6.32,4.74,6.24,4.77,6.26,4.76,6.15,4.79,12.36,9.54c4.13,3.17,8.15,6.44,12.26,9.64C-6.24,1619.6,26,1646,57.34,1673S119.4,1727.78,148.92,1756Z"/><path class="j" d="M138.06,1751.39q-44.52-42.19-91.89-82.51t-96.66-78.33c-32.75-25.27-66.34-50.48-102-74.6s-73.46-47.21-115-67.51c-6.88-3.43-14.14-6.53-21.49-9.78l-2.76-1.22-2.82-1.14-5.69-2.28-5.75-2.29c-1.92-.77-3.85-1.54-5.89-2.26-8-3-16.28-5.7-24.71-8.31s-17.06-4.94-25.9-7c-4.41-1.1-8.89-2-13.39-3s-9.07-1.8-13.68-2.53c-9.21-1.6-18.63-2.8-28.21-3.76s-19.37-1.49-29.3-1.75-20,0-30.3.59a355.77,355.77,0,0,0-85.93,25.74,330.24,330.24,0,0,0-41.29,22c-3.34,2.11-6.67,4.23-9.94,6.51l-4.9,3.38c-1.63,1.14-3.22,2.34-4.83,3.52l-4.8,3.57c-1.63,1.26-3.3,2.61-4.94,3.93l-4.92,4-4.75,4.13a305,305,0,0,0-62.31,76,307.82,307.82,0,0,0-35.29,91.68,287.4,287.4,0,0,0-6,50.91,274,274,0,0,0,3.69,53.29,261.58,261.58,0,0,0,15,53.47l2.66,6.54,2.94,6.44c1,2.13,2,4.31,3,6.38l3.16,6c4.14,8,9,15.78,13.9,23.43A280.71,280.71,0,0,0-628,1930a327.22,327.22,0,0,0,42.85,24.68A367.7,367.7,0,0,0-542,1971.86l9.37,2.5,9.26,2.19,4.62,1.08,4.58.94,9.14,1.85,9,1.6,4.51.78,4.47.67,8.92,1.33,8.84,1.11,4.41.54,4.37.45,8.74.88,8.66.69,4.32.34,4.29.25,8.57.5,8.5.34c5.68.27,11.27.28,16.9.42,22.41.2,44.42-.6,66.25-2.43l8.18-.74,2-.18,1.87-.2,3.73-.41,14.91-1.61c10-.93,19.76-2.42,29.6-3.67l8.77-1.59c2.92-.55,5.81-1.21,8.71-1.82l17.41-3.73,4.35-.94,4.31-1.06,8.62-2.14c5.74-1.44,11.51-2.83,17.23-4.34,22.8-6.29,45.48-13,67.65-20.9,5.55-2,11.12-3.88,16.65-5.88l16.44-6.31c11-4.1,21.73-8.79,32.56-13.28,5.44-2.21,10.7-4.7,16-7.08l16-7.23,15.72-7.62c5.23-2.56,10.51-5.05,15.63-7.77a1200.48,1200.48,0,0,0,119.49-70.15,1359.4,1359.4,0,0,0,109.75-81.95l6.59-5.42c2.19-1.81,4.32-3.67,6.48-5.51l12.93-11.06c4.35-3.66,8.51-7.48,12.76-11.23l12.68-11.3,12.46-11.5c4.14-3.85,8.34-7.65,12.38-11.58,8.13-7.83,16.38-15.57,24.31-23.56Q370,1598.53,414,1547.49L425,1534.67l5.46-6.41,5.36-6.48,10.71-13c1.81-2.16,3.53-4.33,5.25-6.51l5.17-6.52,20.66-26.11,5.16-6.53c1.7-2.19,3.33-4.4,5-6.6l10-13.23c6.63-8.83,13.33-17.64,19.9-26.51L536.9,1390l9.64-13.4c1.63-2.23,3.19-4.48,4.74-6.73l4.67-6.75,18.69-27,4.67-6.76,4.55-6.79,9.08-13.59,18.14-27.22,17.71-27.3,8.86-13.67c3-4.56,5.79-9.12,8.7-13.68l17.33-27.39,4.33-6.85,4.25-6.84,8.51-13.7,17-27.41,16.79-27.37,66.46-109,16.52-27L805.83,968l8.28-13.41L830.7,927.7l16.68-26.62,8.35-13.31,4.18-6.66,4.22-6.57L881,848.24c2.83-4.37,5.6-8.83,8.47-13.12l8.56-13,17.13-26c23.11-34.44,47.13-69.05,71.87-104.21,49.36-70.27,101.24-142.62,151.44-220,2.93-4.56,7.32-11.6,12.74-20.57s11.86-19.92,18.84-32.34c14-24.73,30.32-55.2,45.37-86.7s28.84-64,38.74-91.71c2.44-7,4.68-13.6,6.7-19.81s3.65-12.11,5.12-17.44c3-10.63,4.63-19.38,5.11-25.31,1.69-6.46,3.39-12.89,4.91-19.42l4.63-19.49c2.83-13.11,5.73-26.11,8.14-39.29l-6.39-2.15c-11.45,32.9-24.76,64.68-39,96.56s-29.38,63.91-44.82,97.48c-5.07,9.79-10,19.52-14.64,29.49l-7,14.84c-2.32,4.95-4.58,10-6.94,14.87-4.69,9.85-9.36,19.75-14.39,29.36-2.51,4.82-5,9.65-7.69,14.36s-5.4,9.37-8.24,14q-19.22,30.94-38.77,60.17c-6.49,9.81-13.06,19.37-19.57,29s-13.08,19-19.65,28.41c-26.22,37.61-52.48,74.13-78.45,111.09s-51.66,74.29-76.52,113.38Q902,758,897.42,765.45c-3.07,4.95-6.17,9.9-9.21,14.93q-9.07,15.11-18.16,30.62l-4.55,7.78-2.27,3.91-2.24,4-9,16.05L843,859l-4.49,8.24-4.44,8.39a191.91,191.91,0,0,1-12,21.46c-4.68,7.35-10,14.83-15.64,22.6-11.33,15.49-24.34,31.33-37.29,47.51-6.48,8.06-13,16.12-19.24,24.12s-12.36,16-18,23.9-10.93,15.6-15.58,23.16a200.58,200.58,0,0,0-12,22.1c-30.53,54.16-62.05,105.29-94.81,154.25s-66.79,95.65-101.78,141.06l-26.48,33.82-27,33.34c-8.86,11.17-18.3,22-27.47,33L413,1472.47c-2.26,2.76-4.65,5.49-7,8.22l-7.07,8.21-7.07,8.22-7.17,8.16c-4.79,5.43-9.48,11-14.36,16.34l-14.49,16.31-14.69,16.24q-29.53,32.47-60.28,65.11c-33.53,35.8-65.56,67.78-97.56,97.22-4,3.71-8.05,7.26-12,10.87l-12,10.71-12.12,10.4c-4,3.43-8,6.94-12.12,10.25-16.28,13.44-32.66,26.47-49.61,38.89a892,892,0,0,1-108.82,69.1c-2.43,1.36-5,2.61-7.46,3.9l-7.56,3.84-7.62,3.84c-2.56,1.27-5.1,2.59-7.73,3.78l-15.82,7.32-8,3.65-8.21,3.46-16.67,6.91c-5.66,2.22-11.43,4.34-17.23,6.51l-8.76,3.23c-2.92,1.11-5.95,2-8.94,3.06l-18.23,6c-2.68,1-5.51,1.91-8.38,2.94l-8.81,3.16c-6,2.18-12.2,4.62-18.7,6.83l-19.83,7.1-20.58,6.83-5.18,1.71c-1.72.58-3.45,1.14-5.2,1.63l-10.41,3.06-10.3,3-5.09,1.45-5.08,1.27c-6.74,1.66-13.31,3.22-19.64,4.64-1.58.35-3.15.72-4.7,1l-4.63.84q-4.57.81-8.91,1.51l-14.14,1.89c-1.13.16-2.5.29-3.75.43l-3.83.42c-2.56.27-5.11.57-7.67.78-5.12.44-10.23.91-15.36,1.21-2.56.16-5.12.34-7.69.47l-7.71.33a523.48,523.48,0,0,1-62.29-1.29,451.85,451.85,0,0,1-63.77-9.6,371.24,371.24,0,0,1-65.2-21c-2.72-1.1-5.46-2.43-8.18-3.68s-5.44-2.49-8.16-3.89c-5.44-2.81-10.85-5.53-16.24-8.73a285.22,285.22,0,0,1-31.67-21.06c-5.12-4-10.21-8-15.1-12.54l-3.68-3.31-1.83-1.66-1.79-1.75q-3.57-3.51-7.08-7.08a248.89,248.89,0,0,1-25.57-31.32c-4-5.51-7.4-11.33-10.87-17.13-.43-.73-.87-1.45-1.28-2.18l-1.19-2.22-2.36-4.46-2.32-4.47-1.15-2.24-1.1-2.37a230.83,230.83,0,0,1-14.34-39,243.71,243.71,0,0,1-7.33-39.86,259,259,0,0,1-.75-39.25c.22-3.2.37-6.44.72-9.61s.68-6.34,1.05-9.51l1.42-9.38c.48-3.13,1.14-6.18,1.73-9.27a284.53,284.53,0,0,1,9.82-35.84,292,292,0,0,1,14.25-33.66c1.39-2.7,2.71-5.42,4.18-8.07l4.43-7.92c3.1-5.2,6.24-10.36,9.65-15.37a284.18,284.18,0,0,1,22.12-28.84,282,282,0,0,1,26-25.93c2.35-2,4.69-4,7.07-6l7.34-5.74c1.24-1,2.41-1.79,3.62-2.67l3.6-2.58c2.39-1.74,4.85-3.35,7.3-5a295,295,0,0,1,30.27-17.55,314.35,314.35,0,0,1,63.6-23.65q16.13-4.1,32.29-6.58t32.17-3.4a381.56,381.56,0,0,1,124.33,13.33c4.7,1,9.13,2.36,13.57,3.75s8.88,2.84,13.14,4.63,8.56,3.54,12.76,5.45,8.24,4.1,12.3,6.24A383.43,383.43,0,0,1-220.35,1491c14.21,10.59,27.77,21.39,41.34,31.56s27.14,19.71,41.78,27.73a644.46,644.46,0,0,1,58.32,32.17l13.88,8.81,6.92,4.45,6.8,4.58,13.56,9.27c4.49,3.13,8.88,6.35,13.32,9.54,8.92,6.36,17.52,13,26.2,19.63,4.37,3.29,8.55,6.73,12.82,10.1s8.53,6.77,12.72,10.23l12.53,10.4c2.08,1.74,4.19,3.47,6.24,5.23l6.16,5.28,12.32,10.6,12.14,10.72c7.48,7.76,10.71,19.4,15.78,32.85a157.47,157.47,0,0,0,9.41,21.49,117.4,117.4,0,0,0,16.17,23.17c25.88,31.35,51.68,61.32,77.43,90.24s51.43,56.76,76.95,83.77,50.82,53.21,75.74,78.88,49.45,50.76,73.43,75.75c-3.86-7-7.73-14.14-11.74-21.11-46.33-52.48-90.44-108-134.87-164.42S185.85,1808,138.06,1751.39Z"/><path class="j" d="M737.69,2358.73q-7.72-3-15.33-6l-7.57-3c-1.25-.51-2.52-1-3.75-1.54l-3.67-1.64c-9.77-4.39-19.33-8.84-28.6-13.36q9.55,7.64,19.44,15.32c3.3,2.54,6.59,5.16,10,7.65l10.32,7.36q10.4,7.36,21.09,14.73c1.79,1.22,3.55,2.48,5.37,3.66l5.49,3.5,11.08,7c7.44,4.64,14.92,9.35,22.55,13.9q11.58,6.58,23.36,13.1c15.6,8.92,32,16.68,48.34,24.69,8.15,4.09,16.59,7.59,25,11.26s16.83,7.23,25.31,10.74q12.86,4.91,25.79,9.67l12.93,4.72,3.24,1.17,3.27,1.07,6.55,2.1q13.1,4.19,26.21,8.2l6.55,2c2.18.66,4.41,1.2,6.6,1.8l13.22,3.46c8.81,2.26,17.58,4.52,26.36,6.6q13.27,2.79,26.44,5.38A1476,1476,0,0,1,737.69,2358.73Z"/><path class="j" d="M559.41,2233.63l2.44,3.61-20.21-17.75c-3.35-3-6.77-5.86-10.06-8.9l-9.8-9.17-19.58-18.29c-1.65-1.5-3.23-3.08-4.8-4.66l-4.74-4.72-9.47-9.42-9.47-9.41-4.73-4.7c-1.57-1.58-3.09-3.21-4.64-4.81-6.16-6.44-12.37-12.8-18.42-19.38l-9.13-9.79-9-9.93c-3-3.32-6-6.59-9-10l-8.91-10.07c4,7,7.88,14.07,11.74,21.11l21.24,22.23,5.25,5.59,5.26,5.54q5.25,5.54,10.43,11.16c7,7.36,14,14.72,20.81,22.29q5.13,5.67,10.17,11.44c3.43,3.78,6.91,7.51,10.32,11.34q5.38,6.11,11,12.3l5.6,6.2,2.83,3.11,1.42,1.56,1.47,1.51c6.51,4.23,13.24,8.45,20.11,12.66l10.4,6.3,5.26,3.15c1.75,1.06,3.6,2,5.4,3,1.65,2.3,3.35,4.53,4.95,6.86A180,180,0,0,0,592,2275c3.5,3.6,7.45,6.9,11.5,10.31s8.35,6.75,12.81,10.1,9.11,6.68,13.92,10,10,6.32,15.24,9.45,10.63,6.22,16.16,9.3l8.39,4.61c2.88,1.45,5.8,2.89,8.74,4.32l-6.53-5.25c-2.16-1.76-4.25-3.63-6.37-5.44-4.21-3.65-8.37-7.28-12.44-10.88q-5.79-5-11.66-9.95c-1.94-1.65-3.94-3.23-5.86-4.91l-5.78-5q-11.59-10-23.47-19.52c-4-3.13-7.85-6.46-11.75-9.71s-7.83-6.48-11.78-9.67C575.25,2246.36,567.17,2240.2,559.41,2233.63Z"/><path class="k" d="M387.88,2346.73c-6.46-7.47-12.9-14.53-19.2-21.38s-12.3-13.68-18.39-20.11q-4.57-4.82-9.11-9.44c-3-3.1-6.1-6.08-9-9.13-5.87-6.06-11.77-11.88-17.57-17.57-23.17-22.76-45.37-43.15-67.33-63.58s-43.54-41-64.86-64a665,665,0,0,1-62.95-78.9q-23-32.88-46.38-63.52t-47.58-59.33q-24.14-28.66-49-55.35c-16.58-17.77-33.36-35-50.43-51.49,71.5,81.25,137.23,170.31,208.46,259.9,35.63,44.81,72.73,89.78,112.63,133.86q30,33,62.31,65.16l8.12,8c1.36,1.33,2.7,2.67,4.08,4l4.17,3.92,16.73,15.64c5.59,5.2,11.17,10.42,16.81,15.57l17.29,15C376.27,2348.86,378.79,2345.49,387.88,2346.73Z"/><path class="l" d="M968.7,2575.84l-4.15-.29c-1.39-.13-2.77-.29-4.18-.45q-4.2-.49-8.53-1.11-8.66-1.23-17.84-3c-6.12-1.17-12.44-2.47-18.92-4s-13-3.61-19.86-5.72-13.83-4.43-21.06-7c-1.8-.64-3.64-1.26-5.45-2l-5.47-2.19q-5.51-2.23-11.18-4.64-11.34-4.81-23.32-10.35c-4-1.79-8-3.91-12-6s-8.16-4.26-12.32-6.49q-10.52-5.69-20.73-11.43c-6.75-3.95-13.32-8-19.85-12.06s-12.94-8.07-19.28-12.09c-3.19-2-6.27-4.12-9.35-6.22l-9.18-6.31L708,2462l-4.44-3.12-2.21-1.56-2.17-1.62-8.61-6.48-17-12.82c-5.6-4.25-11.21-8.38-16.57-12.81q-16.24-13.05-32.12-25.6-15.59-13-31.07-25.47l-3.88-3.09L588,2367.9l-1.9-1.59-7.61-6.33q-7.62-6.28-15.31-12.38l-7.71-6.05-3.88-3c-1.3-1-2.54-2-3.82-3.06q-7.61-6.15-15.36-12.1l-10.69-8.58-5.38-4.27-2.7-2.13-2.64-2.21q-10.58-8.85-21.35-17.64l-10.81-8.78c-1.83-1.44-3.58-3-5.35-4.49l-5.32-4.54q-10.67-9.08-21.5-18.12l-5.43-4.52c-1.8-1.52-3.54-3.11-5.32-4.66l-10.66-9.36-21.51-18.72-10.63-9.58c-3.55-3.2-7.14-6.37-10.64-9.64-7-6.5-14.18-12.93-21.16-19.56q-42.18-39.43-83.24-81.15c-27.3-27.75-54.17-56.06-80.54-84.65C144.79,1953.6,94.11,1895.43,45.48,1838Q9,1794.92-26.1,1752.28t-69.19-85c-5.4-6.43-10.8-13-16.53-19.23s-11.41-12.65-17.4-18.76c-11.92-12.3-24.43-24.26-37.65-35.67-26.48-22.73-55.73-43.49-88.11-60.24a372.1,372.1,0,0,0-50.75-21.57l-6.61-2.24c-2.23-.69-4.47-1.32-6.71-2-4.49-1.3-9-2.64-13.55-3.73q-13.7-3.38-27.77-5.5a298.59,298.59,0,0,0-57-3.11,276.21,276.21,0,0,0-57.26,8.29c-37.61,9.63-73.81,28-102.38,55.64a200.11,200.11,0,0,0-35.58,47.18,202.42,202.42,0,0,0-20.48,55.25,179.56,179.56,0,0,0-2.7,58.76,151.42,151.42,0,0,0,18.08,55.73,153.57,153.57,0,0,0,16.57,24.17l2.36,2.8c.79.93,1.55,1.88,2.42,2.75l5,5.31c1.71,1.74,3.54,3.36,5.3,5,.9.82,1.75,1.7,2.69,2.47l2.8,2.35c3.66,3.22,7.63,6.07,11.52,9l6,4.1,1.51,1,1.56.95,3.12,1.9a208.35,208.35,0,0,0,25.95,13.3c14.26,6.27,30.72,10.48,47.94,13,2.14.35,4.32.58,6.5.82s4.36.51,6.56.69c4.41.31,8.82.72,13.27.84,8.89.44,17.87.3,26.79,0a507.33,507.33,0,0,0,52.42-5l6.29-.9,6.2-1c4.11-.59,8.16-1.36,12.15-2l11.77-2q5.83-1.09,11.47-2c12.56-1.8,24.89-4.45,37.2-6.77l18.28-4.16,4.55-1,2.27-.52,2.25-.59,9-2.36,9-2.36,4.48-1.18,4.44-1.32,17.68-5.25,2.2-.65,2.18-.72,4.36-1.44,8.7-2.88,8.68-2.87,8.57-3.12c5.7-2.1,11.41-4.12,17.06-6.27l16.81-6.71c5.62-2.16,11.1-4.64,16.61-7l8.25-3.57,4.12-1.78,4.06-1.9,16.21-7.56c2.71-1.22,5.35-2.59,8-3.91l8-4,7.95-4c2.66-1.3,5.23-2.76,7.85-4.13l15.61-8.33c5.15-2.86,10.25-5.8,15.36-8.69l7.65-4.34,7.54-4.52,15-9,14.78-9.38,7.37-4.7,7.25-4.85,14.47-9.7,14.23-10c2.36-1.67,4.75-3.31,7.09-5l7-5.15c4.65-3.44,9.33-6.84,13.95-10.3l13.72-10.57c2.28-1.77,4.58-3.5,6.84-5.3l6.74-5.42,13.46-10.85,13.24-11.1,6.61-5.56,6.5-5.68,13-11.36,12.78-11.6c26.41-24.15,47.9-42.42,67.56-57.79,4.86-3.9,9.62-7.59,14.32-11.16l13.79-10.46,13.48-10.08,13.25-10.18c8.92-6.78,17.64-14,26.8-21.83,4.55-3.93,9.08-8.12,13.77-12.5q3.51-3.29,7.09-6.77c2.37-2.34,4.74-4.77,7.15-7.26s4.85-5.07,7.33-7.72,5-5.38,7.46-8.27c5-5.74,10.08-11.85,15.36-18.38s10.77-13.46,16.31-21,11.08-15.65,16.91-24.28a106.45,106.45,0,0,1,13.05-13.78c5.31-5,11.25-10.3,17.27-15.6s12-10.64,17.29-15.71c2.63-2.54,5.1-5,7.24-7.38a71.06,71.06,0,0,0,5.43-6.85c33.49-49.88,65.41-100.9,96.93-152.25s62.41-103.18,93.45-154.93S723,896.74,755.1,845.72l12-19.13c4-6.37,8.15-12.67,12.22-19l12.26-19,6.15-9.48,6.25-9.39c8.36-12.51,16.64-25.07,25.1-37.52s17-24.82,25.66-37.19c69.12-98.87,143-195.64,210.79-297.68,33.88-51,66.19-103.44,95.31-157.9s55-111,75.84-169.61c-13.84-9.22-28.63-14-43.69-14a972.54,972.54,0,0,1-44.42,114.69c-4.4,9.3-8.68,18.65-13.33,27.83-2.3,4.6-4.56,9.22-6.9,13.81l-7.15,13.69-3.59,6.83-3.7,6.78L1106.51,253l-7.65,13.42c-2.55,4.47-5.1,8.94-7.76,13.35-20.92,35.48-43.23,70.09-66.52,103.93s-47.34,67-71.79,99.79c-48.86,65.51-99,129.36-146.59,194q-17.88,24.21-35.08,48.67L754,750.55,737.22,775c-5.53,8.15-11.13,16.24-16.54,24.4l-16.17,24.42c-10.79,16.22-21.19,32.5-31.58,48.66-57.12,86.52-111,174.6-166.28,261-27.69,43.19-55.54,86.15-84.59,128.1l-10.81,15.8L400.19,1293l-11.07,15.57-5.53,7.79-2.77,3.89-2.84,3.83-22.72,30.63c-1.9,2.55-3.76,5.13-5.7,7.64l-5.85,7.51-11.7,15-11.69,15c-3.91,5-8,9.84-11.92,14.77l-6,7.36-6.09,7.27c-4.07,4.83-8.09,9.72-12.21,14.5q-24.63,28.82-50.6,56.39t-53.35,53.6c-18.32,17.28-37,34.16-56.18,50.36-4.78,4.08-9.68,8-14.51,12l-7.28,6-7.39,5.82c-4.94,3.85-9.83,7.78-14.82,11.57l-15,11.26-3.76,2.81-3.82,2.72-7.64,5.44-7.64,5.44c-2.54,1.82-5.16,3.52-7.74,5.29l-15.53,10.47L3.07,1693a879.75,879.75,0,0,1-131.78,68.69c-2.67,1.11-5.3,2.32-8,3.35l-8.08,3.18-8.09,3.19c-2.7,1.06-5.39,2.15-8.14,3.1l-16.42,5.92c-1.37.49-2.73,1-4.11,1.47l-4.15,1.36L-194,1786l-8.32,2.74-2.08.68-2.1.62-4.21,1.24-16.84,5-17,4.48c-2.84.72-5.66,1.55-8.52,2.2l-8.58,2-8.59,2-4.29,1c-1.43.33-2.88.58-4.32.87l-17.31,3.43c-2.88.62-5.79,1-8.69,1.53l-8.71,1.44-8.71,1.45c-2.91.45-5.84.78-8.76,1.19l-17.48,2.3-8.38.86-8.4.7c-11.2.81-22.43,1.16-33.58,1A340.66,340.66,0,0,1-464,1816.1c-20.73-4.28-40.17-10.83-56.69-19.7a136.06,136.06,0,0,1-22.43-14.92,110,110,0,0,1-17.44-18l-1.81-2.49a30.34,30.34,0,0,1-1.78-2.51l-1.66-2.59-.84-1.29-.43-.64-.37-.68c-1-1.81-2.06-3.61-3-5.38l-1.29-2.63c-.21-.44-.45-.86-.65-1.31l-.57-1.36a95.63,95.63,0,0,1-6.79-22.94A43.63,43.63,0,0,1-589,1722c.85-6.28,2.11-12.5,3.53-18.64s3.12-12.24,5.07-18.31a141.52,141.52,0,0,1,3.45-17.92c.46-6.91,2.32-13.67,6.2-18.68a150.46,150.46,0,0,0-6.2,18.68l-.14,2c0,.68,0,1.37,0,2.06,0,1.38.05,2.75.14,4.13a222.34,222.34,0,0,1,18.12-37.16,184.82,184.82,0,0,1,24.95-32.45c1.2-1.16,2.37-2.35,3.55-3.54s2.44-2.24,3.64-3.39l4-3.46,4.12-3.36a189.93,189.93,0,0,1,17.56-12.38,205.77,205.77,0,0,1,39.53-19,227.15,227.15,0,0,1,42.64-10.54A220,220,0,0,1-377,1548a183.8,183.8,0,0,1,37.49,5.58c11.57,3.24,22.05,7.07,31,12,30.8,16.58,60.77,36.67,90.62,59.51q22.38,17.12,44.72,36.15l5.6,4.74,5.59,4.84,5.61,4.84,5.6,5,11.25,9.9,11.18,10.1c29.91,26.92,59.41,55.41,88.65,84.75,3.68,3.62,7.28,7.39,10.92,11.08s7.3,7.37,10.91,11.13c7.22,7.51,14.5,14.94,21.67,22.55,14.43,15.07,28.69,30.45,42.92,45.8,56.75,61.66,111.88,124.89,164.61,185.29l148.83,170.49,9,9.74c3,3.24,6,6.48,9.07,9.61l18.37,18.79c12.08,12.63,24.79,24.34,37.24,36.13l9.36,8.79c1.54,1.48,3.16,2.86,4.75,4.27l4.79,4.21L471.8,2340l9.52,8.26c3.23,2.67,6.49,5.29,9.72,7.91l19.4,15.62a1166.2,1166.2,0,0,0,158.82,105.71A1056.09,1056.09,0,0,0,830,2549.66q10,3.41,20,6.69l9.92,3.25c3.3,1.08,6.58,2.15,9.92,3.07q19.95,5.73,39.54,10.95c26.34,6.35,52.18,12.09,77.89,15.88C980.53,2584.92,974.26,2580.35,968.7,2575.84Z"/><path class="m" d="M974.54,2505.72c-6.14-7-11.76-13.09-16.37-17.9-45.53-6.42-94.82-18.89-145.33-37.53S710.72,2406.78,660.09,2377A1157.77,1157.77,0,0,1,513.16,2273.9l-17.48-14.43c-1.47-1.19-2.88-2.44-4.29-3.7l-4.24-3.75-8.47-7.51-16.89-15c-2.84-2.47-5.52-5.11-8.26-7.69l-8.16-7.78c-21.92-20.51-42.77-41.87-62.86-63.43a92,92,0,0,1-11.33-15.26c-4-6.38-8.23-13.76-12.59-21.92l-13.89-25.8c-2.42-4.48-4.95-9-7.5-13.48s-5.17-9-7.88-13.44a437.12,437.12,0,0,0-46.88-52c-15.67-14.85-31.28-27.76-46.49-40.22-30.42-25-59.12-48.11-83-82.09-13.22-18.48-26.57-36.88-40.26-55.1-6.79-9.14-13.75-18.17-20.69-27.23l-10.54-13.5q-5.27-6.75-10.65-13.44l-10.76-13.37-10.94-13.25-5.49-6.61-5.57-6.56c-3.73-4.36-7.43-8.76-11.2-13.09-7.6-8.63-15.13-17.32-22.95-25.8-3.9-4.25-7.72-8.56-11.7-12.74l-11.9-12.6c-16.06-16.64-32.4-33.09-49.51-48.88l-6.37-6c-2.14-2-4.33-3.9-6.49-5.85l-13-11.66c-4.45-3.81-8.86-7.66-13.35-11.44l-6.79-5.64c-2.26-1.88-4.52-3.76-6.84-5.6-18.37-14.83-37.54-29-57.72-42.24a527.56,527.56,0,0,0-63.72-36,435,435,0,0,0-70.21-26.24c-3-.85-6.06-1.73-9.21-2.47l-4.68-1.15-4.7-1c-1.57-.34-3.13-.7-4.71-1l-4.73-.92c-3.15-.64-6.32-1.15-9.49-1.69a347.66,347.66,0,0,0-38.39-4.17,334,334,0,0,0-77.84,4.85,290.32,290.32,0,0,0-76,25,262.73,262.73,0,0,0-35.12,21c-2.82,1.95-5.55,4.05-8.28,6.14l-2,1.57-2.05,1.68-4.09,3.39c-2.72,2.27-5.28,4.69-7.91,7s-5.05,4.9-7.54,7.38A241.9,241.9,0,0,0-657.08,1608a233.7,233.7,0,0,0-20.32,81,206.13,206.13,0,0,0,1.78,42.94,194.18,194.18,0,0,0,11.18,42.37c1.44,3.4,2.82,6.82,4.38,10.17l2.43,5,1.23,2.48c.42.82.87,1.59,1.3,2.38,1.77,3.15,3.5,6.32,5.36,9.41s3.92,6.09,5.9,9.11a200.54,200.54,0,0,0,28.24,32.61,216,216,0,0,0,33.54,25.52c3,1.76,5.91,3.6,8.9,5.25l9,4.82,9.16,4.37c3.06,1.4,6.16,2.65,9.24,4a297.64,297.64,0,0,0,37.42,12.35c3.14.77,6.27,1.62,9.41,2.3l9.41,2,9.41,1.71c3.14.57,6.27,1,9.4,1.46,12.53,1.78,25,2.93,37.46,3.55s24.81.61,37.12.19,24.56-1.31,36.73-2.7,24.44-3.22,35.92-5.41l8.74-1.58c2.91-.55,5.84-1,8.72-1.66l17.36-3.74c2.89-.65,5.79-1.2,8.66-1.93l8.6-2.16c5.73-1.45,11.47-2.85,17.18-4.36l17-4.87c2.83-.82,5.68-1.61,8.5-2.46l8.42-2.7,16.82-5.41,16.63-5.91,8.31-3,8.22-3.19,16.41-6.41c5.42-2.25,10.8-4.57,16.2-6.86l8.09-3.44c2.69-1.15,5.33-2.43,8-3.63l16-7.34c5.29-2.5,10.5-5.15,15.75-7.72,10.54-5.05,20.77-10.69,31.11-16.1,2.59-1.33,5.11-2.8,7.66-4.22l7.62-4.29c5.06-2.88,10.2-5.64,15.16-8.68l15-8.95,3.74-2.24,3.69-2.33L1.5,1775c19.73-12.29,38.83-25.47,57.71-38.88l14-10.27c2.32-1.72,4.68-3.4,7-5.16l6.88-5.28,13.75-10.57L114.33,1694c71.91-58,137.14-123.2,197.08-192.48,13.74-15.79,20.63-9.88,30-5.34s21.23,7.68,44.56-14.88l10.6-12,2.63-3,2.54-3,5.06-6.05q10.09-12.09,19.95-24.1c6.66-8,12.86-16.1,19.11-24.14l18.53-24.05,2.29-3,2.22-3,4.43-6,8.81-12c5.84-8,11.71-15.92,17.43-23.86l33.5-47.35c43.91-62.65,85.62-123,132.84-179.6,8.48-7,16.24-26.72,24.86-51.69s18.37-55.3,31.2-83.67a1381.25,1381.25,0,0,1,80.82-145q11-17.09,22.14-33.91,11.35-16.64,22.86-33.07c15.38-21.88,31.3-43.32,47.45-64.76,32.36-42.87,65.69-85.47,98.18-130.17s64.12-91.44,92.52-142.42c29.37-55.69,61.36-110.12,90.66-166.83,14.63-28.34,28.6-57.23,41-86.93a762.39,762.39,0,0,0,32-91.45,102.73,102.73,0,0,0-12.95-10.27C1215.88,128.46,1190,185,1160.89,239.45s-61.43,106.88-95.31,157.9C997.76,499.39,923.91,596.16,854.79,695q-12.94,18.55-25.66,37.19c-8.45,12.45-16.73,25-25.1,37.52l-6.25,9.39-6.15,9.48-12.26,19c-4.07,6.34-8.19,12.63-12.22,19l-12,19.13c-32.13,51-63.36,102.66-94.39,154.41s-62,103.55-93.45,154.93-63.44,102.37-96.93,152.25a71.06,71.06,0,0,1-5.43,6.85c-2.14,2.39-4.61,4.85-7.24,7.38-5.27,5.07-11.29,10.4-17.29,15.71s-12,10.63-17.27,15.6A106.45,106.45,0,0,0,410,1366.63c-4.5,6.66-8.88,12.9-13.15,18.76-2.15,2.92-4.22,5.79-6.38,8.51s-4.29,5.33-6.41,7.88c-8.46,10.2-16.59,19.17-24.59,27.43l-3,3.06-3.05,3q-3,2.92-6.08,5.74c-4.06,3.76-8.06,7.43-12.16,11s-8.25,7-12.42,10.51l-6.3,5.25-6.48,5.22-27.41,22.15-15,12.37q-3.9,3.23-7.93,6.65c-2.69,2.28-5.41,4.65-8.25,7-22.48,19.21-48.62,42.77-81.92,73.17l-13,11.79-13.18,11.5-6.58,5.74-6.68,5.6-13.34,11.19L103.15,1651l-6.76,5.44-6.87,5.29-13.73,10.58-13.95,10.27-7,5.14-7.08,5-14.18,10-14.41,9.64L12,1717.12l-7.33,4.65L-10,1731.08l-14.92,9-7.48,4.48-7.59,4.31c-5.07,2.86-10.12,5.78-15.23,8.61l-15.48,8.26c-2.59,1.36-5.15,2.81-7.78,4.1l-7.88,3.94-7.9,4c-2.64,1.31-5.25,2.68-7.95,3.89l-16.09,7.5c-21.63,9.72-43.7,19.07-66.56,27.14l-8.55,3.12-8.66,2.88c-5.8,1.89-11.58,3.88-17.44,5.72l-17.72,5.26-4.45,1.32c-1.48.44-3,.8-4.49,1.2l-9,2.37c-12,3.34-24.29,5.9-36.62,8.76-12.43,2.35-24.91,5-37.65,6.87q-5.64.9-11.47,2l-11.77,2c-4,.61-8,1.38-12.15,2l-6.2,1-6.29.9a507.33,507.33,0,0,1-52.42,5c-8.92.26-17.9.4-26.79,0-4.46-.12-8.87-.53-13.27-.84-2.2-.19-4.38-.46-6.56-.69s-4.36-.47-6.5-.82c-17.21-2.47-33.68-6.68-47.94-13a208.35,208.35,0,0,1-25.95-13.3l-3.12-1.9-1.56-.95-1.51-1-6-4.1c-3.89-2.93-7.86-5.77-11.52-9l-2.8-2.35c-.95-.77-1.79-1.65-2.69-2.47-1.76-1.69-3.59-3.31-5.3-5l-5-5.31c-.86-.86-1.63-1.82-2.42-2.75l-2.36-2.8a153.57,153.57,0,0,1-16.57-24.17,151.42,151.42,0,0,1-18.08-55.73,179.56,179.56,0,0,1,2.7-58.76,202.42,202.42,0,0,1,20.48-55.25A200.11,200.11,0,0,1-577,1559.18c28.56-27.64,64.76-46,102.38-55.64a276.21,276.21,0,0,1,57.26-8.29,298.59,298.59,0,0,1,57,3.11q14,2.12,27.77,5.5c4.58,1.08,9.06,2.43,13.55,3.73,2.24.66,4.48,1.29,6.71,2l6.61,2.24A372.1,372.1,0,0,1-255,1533.38c32.37,16.75,61.63,37.52,88.11,60.24,13.22,11.41,25.74,23.36,37.65,35.67,6,6.11,11.71,12.47,17.4,18.76s11.13,12.79,16.53,19.23q34.17,42.42,69.19,85T45.48,1838c48.64,57.43,99.31,115.6,152.06,172.8,26.37,28.59,53.24,56.9,80.54,84.65s55.12,54.86,83.24,81.15c7,6.62,14.13,13.05,21.16,19.56,3.5,3.26,7.09,6.44,10.64,9.64l10.63,9.58,21.51,18.72,10.66,9.36c1.78,1.55,3.52,3.14,5.32,4.66l5.43,4.52q10.83,9,21.5,18.12l5.32,4.54c1.77,1.51,3.52,3,5.35,4.49l10.81,8.78q10.77,8.79,21.35,17.64l2.64,2.21,2.7,2.13,5.38,4.27,10.69,8.58q7.75,5.95,15.36,12.1c1.28,1,2.52,2.08,3.82,3.06l3.88,3,7.71,6.05q7.69,6.1,15.31,12.38l7.61,6.33,1.9,1.59,1.94,1.54,3.88,3.09Q609.35,2385,624.89,2398q15.91,12.55,32.12,25.6c5.37,4.43,11,8.56,16.57,12.81l17,12.82,8.61,6.48,2.17,1.62,2.21,1.56L708,2462l18,12.55,9.18,6.31c3.08,2.1,6.16,4.25,9.35,6.22q9.51,6,19.28,12.09c6.53,4,13.1,8.11,19.85,12.06s13.72,7.63,20.73,11.43q6.24,3.35,12.32,6.49c4.06,2.08,8,4.2,12,6q12,5.54,23.32,10.35,5.67,2.41,11.18,4.64l5.47,2.19c1.81.71,3.65,1.32,5.45,2q10.84,3.8,21.06,7t19.86,5.72c6.48,1.57,12.8,2.87,18.92,4s12.06,2.14,17.84,3q4.33.61,8.53,1.11c1.4.16,2.79.33,4.18.45l4.15.29q-1.8-1.47-3.51-2.94c-1.13-1-2.23-2-3.3-3q-3.22-3-6.11-6A145.83,145.83,0,0,1,945.48,2552a94.86,94.86,0,0,1-13.31-22.54c-5.74-14.67-5.58-28.16-1.06-39.82C941.62,2494,958.52,2499.91,974.54,2505.72Z"/><path class="n" d="M1060,2590a290,290,0,0,0-31.68-54c-10.92-15.29-21.39-27.23-29-34.48a61.87,61.87,0,0,0-9-7.36c-2-1.26-3.07-1.18-2.74.39s2,4.72,5.52,9.29,8.77,10.84,16.27,18.87l-24.07-7.83-19.87-7.16c-4.23,11.79-4,25.19,2.13,39.77,3,7.37,7.67,14.69,13.93,22.28a168.49,168.49,0,0,0,24,23.24l3.72.21,3.71.06q3.68,0,7.27,0,7.17-.09,14-.49C1043.14,2592.19,1051.74,2591.25,1060,2590Z"/><path class="n" d="M946.94,2476.26l-30.78-13.57-7.67-3.37-7.57-3.61-15.14-7.24c-34.11-11-67.85-25.18-101.08-40.74-2.1-.94-4.13-2-6.18-3l-6.14-3.11-12.26-6.28L747.89,2389l-6.1-3.2-6-3.41q-11.95-6.83-23.79-13.78l-5.91-3.48c-2-1.16-3.94-2.31-5.85-3.56l-11.51-7.39q-11.48-7.42-22.8-14.91c-1.9-1.22-3.72-2.57-5.57-3.87l-5.51-3.94-10.94-7.9-10.84-7.92-5.38-4c-1.77-1.35-3.5-2.75-5.24-4.13q-10.43-8.29-20.63-16.59l-10.13-8.3L582,2274q-9.69-8.62-19.09-17.2l-4.68-4.28-4.52-4.43-8.92-8.85q-8.85-8.83-17.37-17.57c-1.39-.88-2.72-1.81-4-2.75l-3.95-2.8-7.75-5.61q-7.66-5.61-14.89-11.23-3.61-2.81-7.11-5.62c-2.28-1.92-4.49-3.88-6.68-5.82q-6.54-5.83-12.56-11.64t-11.44-11.6c-.9-1-1.8-1.92-2.67-2.9l-2.54-3q-2.5-3-4.83-5.91c-3.1-3.95-6-7.81-8.64-11.78s-5-7.9-7.13-11.82c-3.77-7.3-7.61-14.61-11.53-21.81-24-25-48.52-50.06-73.43-75.75s-50.23-51.86-75.74-78.88-51.19-54.86-76.95-83.77-51.55-58.89-77.43-90.24a117.4,117.4,0,0,1-16.17-23.17,157.47,157.47,0,0,1-9.41-21.49c-5.08-13.45-8.3-25.09-15.78-32.85l-12.14-10.72-12.32-10.6-6.16-5.28c-2.06-1.76-4.16-3.48-6.24-5.23L27.32,1659c-4.18-3.45-8.48-6.83-12.72-10.23S6.15,1642,1.78,1638.7c-8.68-6.63-17.28-13.27-26.2-19.63-4.44-3.2-8.83-6.41-13.32-9.54l-13.56-9.27-6.8-4.58-6.92-4.45-13.88-8.81a644.46,644.46,0,0,0-58.32-32.17c-14.64-8-28.26-17.5-41.78-27.73s-27.12-21-41.34-31.56a383.43,383.43,0,0,0-45.41-29.43q-6.09-3.2-12.3-6.24c-4.2-1.91-8.47-3.71-12.76-5.45s-8.71-3.22-13.14-4.63-8.87-2.72-13.57-3.75a381.56,381.56,0,0,0-124.33-13.33q-16,1-32.17,3.4t-32.29,6.58a314.35,314.35,0,0,0-63.6,23.65,295,295,0,0,0-30.27,17.55c-2.45,1.63-4.91,3.24-7.3,5l-3.6,2.58c-1.21.88-2.38,1.68-3.62,2.67l-7.34,5.74c-2.39,2-4.72,4-7.07,6a282,282,0,0,0-26,25.93A284.18,284.18,0,0,0-677.22,1556c-3.41,5-6.54,10.17-9.65,15.37l-4.43,7.92c-1.47,2.65-2.8,5.37-4.18,8.07A292,292,0,0,0-709.73,1621a284.53,284.53,0,0,0-9.82,35.84c-.59,3.09-1.25,6.14-1.73,9.27l-1.42,9.38q-.56,4.74-1.05,9.51c-.35,3.17-.49,6.4-.72,9.61a259,259,0,0,0,.75,39.25,243.71,243.71,0,0,0,7.33,39.86,230.83,230.83,0,0,0,14.34,39l1.1,2.37,1.15,2.24,2.32,4.47,2.36,4.46,1.19,2.22c.41.74.85,1.46,1.28,2.18,3.47,5.8,6.91,11.62,10.87,17.13a248.89,248.89,0,0,0,25.57,31.32q3.51,3.56,7.08,7.08l1.79,1.75,1.83,1.66,3.68,3.31c4.89,4.49,10,8.5,15.1,12.54a285.22,285.22,0,0,0,31.67,21.06c5.39,3.21,10.79,5.92,16.24,8.73,2.72,1.4,5.43,2.6,8.16,3.89s5.47,2.58,8.18,3.68a371.24,371.24,0,0,0,65.2,21,451.85,451.85,0,0,0,63.77,9.6,523.48,523.48,0,0,0,62.29,1.29l7.71-.33c2.57-.12,5.13-.31,7.69-.47,5.13-.29,10.24-.76,15.36-1.21,2.56-.2,5.11-.51,7.67-.78l3.83-.42c1.25-.14,2.62-.27,3.75-.43l14.14-1.89q4.33-.69,8.91-1.51l4.63-.84c1.56-.3,3.12-.67,4.7-1,6.33-1.42,12.91-3,19.64-4.64l5.08-1.27,5.09-1.45,10.3-3,10.41-3.06c1.75-.5,3.47-1.06,5.2-1.63l5.18-1.71,20.58-6.83,19.83-7.1c6.5-2.21,12.7-4.65,18.7-6.83l8.81-3.16c2.86-1,5.7-1.92,8.38-2.94l18.23-6c3-1,6-1.95,8.94-3.06l8.76-3.23c5.8-2.17,11.57-4.29,17.23-6.51l16.67-6.91,8.21-3.46,8-3.65,15.82-7.32c2.63-1.19,5.17-2.51,7.73-3.78l7.62-3.84,7.56-3.84c2.5-1.29,5-2.53,7.46-3.9a892,892,0,0,0,108.82-69.1c16.95-12.41,33.32-25.44,49.61-38.89,4.12-3.31,8.07-6.81,12.12-10.25l12.12-10.4,12-10.71c4-3.61,8.08-7.16,12-10.87,32-29.43,64-61.42,97.56-97.22q30.81-32.71,60.28-65.11l14.69-16.24,14.49-16.31c4.88-5.39,9.56-10.91,14.36-16.34l7.17-8.16,7.07-8.22,7.07-8.21c2.36-2.74,4.74-5.46,7-8.22L426.79,1456c9.17-11,18.6-21.85,27.47-33l27-33.34,26.48-33.82c35-45.42,69-92.12,101.78-141.06s64.28-100.09,94.81-154.25a200.58,200.58,0,0,1,12-22.1c4.65-7.56,9.91-15.29,15.58-23.16s11.75-15.88,18-23.9,12.76-16.06,19.24-24.12c12.95-16.19,26-32,37.29-47.51,5.66-7.76,11-15.25,15.64-22.6a191.91,191.91,0,0,0,12-21.46l4.44-8.39L843,859l9-16.29,9-16.05,2.24-4,2.27-3.91,4.55-7.78q9.09-15.51,18.16-30.62c3-5,6.14-10,9.21-14.93s6.16-9.86,9.29-14.74c24.86-39.09,50.58-76.45,76.52-113.38s52.24-73.48,78.45-111.09c6.57-9.36,13.09-18.9,19.65-28.41s13.08-19.18,19.57-29q19.57-29.23,38.77-60.17,4.26-6.91,8.24-14c2.67-4.7,5.18-9.54,7.69-14.36,5-9.61,9.7-19.51,14.39-29.36,2.37-4.9,4.62-9.92,6.94-14.87l7-14.84c4.63-10,9.57-19.7,14.64-29.49,15.44-33.58,30.59-65.59,44.82-97.48s27.53-63.66,39-96.56l-23.61-8a110.82,110.82,0,0,0-9.08-9.66,762.39,762.39,0,0,1-32,91.45c-12.44,29.71-26.41,58.59-41,86.93-29.3,56.71-61.29,111.14-90.66,166.83-28.4,51-60.06,97.74-92.52,142.42S927.61,655,895.25,697.9c-16.16,21.44-32.08,42.88-47.45,64.76q-11.5,16.44-22.86,33.07-11.21,16.78-22.14,33.91a1381.25,1381.25,0,0,0-80.82,145c-12.84,28.38-22.52,58.64-31.2,83.67S674.4,1103,665.91,1110c-47.22,56.57-88.93,117-132.84,179.6L499.57,1337c-5.72,7.94-11.59,15.86-17.43,23.86l-8.81,12-4.43,6-2.22,3-2.29,3-18.53,24.05c-6.25,8-12.45,16.19-19.11,24.14s-13.22,16-19.95,24.1l-5.06,6.05-2.54,3-2.63,3-10.6,12c-23.33,22.56-35.21,19.4-44.56,14.88s-16.26-10.45-30,5.34C251.47,1570.81,186.24,1636,114.33,1694l-13.52,10.84-13.75,10.57-6.88,5.28c-2.29,1.76-4.65,3.44-7,5.16l-14,10.27c-18.88,13.41-38,26.59-57.71,38.88l-7.37,4.65L-9.56,1782l-3.74,2.24-15,8.95c-5,3-10.1,5.8-15.16,8.68l-7.62,4.29c-2.54,1.42-5.06,2.89-7.66,4.22-10.34,5.41-20.56,11-31.11,16.1-5.25,2.57-10.46,5.22-15.75,7.72l-16,7.34c-2.67,1.21-5.31,2.48-8,3.63l-8.09,3.44c-5.4,2.28-10.78,4.61-16.2,6.86l-16.41,6.41-8.22,3.19-8.31,3-16.63,5.91-16.82,5.41-8.42,2.7c-2.82.85-5.67,1.64-8.5,2.46l-17,4.87c-5.71,1.51-11.45,2.9-17.18,4.36l-8.6,2.16c-2.86.73-5.77,1.28-8.66,1.93l-17.36,3.74c-2.89.67-5.82,1.11-8.72,1.66l-8.74,1.58c-11.48,2.19-23.78,4.06-35.92,5.41s-24.42,2.28-36.73,2.7-24.69.4-37.12-.19-24.93-1.77-37.46-3.55c-3.13-.49-6.27-.88-9.4-1.46l-9.41-1.71-9.41-2c-3.14-.68-6.27-1.53-9.41-2.3a297.64,297.64,0,0,1-37.42-12.35c-3.08-1.32-6.18-2.57-9.24-4l-9.16-4.37-9-4.82c-3-1.65-5.94-3.49-8.9-5.25a216,216,0,0,1-33.54-25.52,200.54,200.54,0,0,1-28.24-32.61q-3-4.53-5.9-9.11c-1.86-3.1-3.59-6.27-5.36-9.41-.44-.8-.89-1.56-1.3-2.38l-1.23-2.48-2.43-5c-1.56-3.35-2.94-6.77-4.38-10.17a194.18,194.18,0,0,1-11.18-42.37,206.13,206.13,0,0,1-1.78-42.94,233.7,233.7,0,0,1,20.32-81,241.9,241.9,0,0,1,46.63-68.68q3.72-3.73,7.54-7.38c2.63-2.36,5.19-4.78,7.91-7l4.09-3.39,2.05-1.68,2-1.57c2.73-2.09,5.45-4.19,8.28-6.14a262.73,262.73,0,0,1,35.12-21,290.32,290.32,0,0,1,76-25,334,334,0,0,1,77.84-4.85,347.66,347.66,0,0,1,38.39,4.17c3.17.54,6.34,1,9.49,1.69l4.73.92c1.57.32,3.14.68,4.71,1l4.7,1,4.68,1.15c3.15.73,6.16,1.62,9.21,2.47a435,435,0,0,1,70.21,26.24,527.56,527.56,0,0,1,63.72,36c20.18,13.2,39.35,27.41,57.72,42.24,2.32,1.83,4.58,3.71,6.84,5.6l6.79,5.64c4.49,3.78,8.9,7.63,13.35,11.44l13,11.66c2.16,1.95,4.35,3.88,6.49,5.85l6.37,6c17.1,15.78,33.45,32.24,49.51,48.88l11.9,12.6c4,4.18,7.8,8.5,11.7,12.74,7.81,8.48,15.35,17.17,22.95,25.8,3.77,4.34,7.47,8.73,11.2,13.09l5.57,6.56,5.49,6.61,10.94,13.25,10.76,13.37q5.39,6.67,10.65,13.44L92,1804.08c6.93,9.06,13.89,18.1,20.69,27.23,13.68,18.22,27,36.62,40.26,55.1,23.86,34,52.56,57.14,83,82.09,15.21,12.45,30.82,25.37,46.49,40.22a437.12,437.12,0,0,1,46.88,52c2.71,4.42,5.33,8.92,7.88,13.44s5.07,9,7.5,13.48l13.89,25.8c4.36,8.16,8.63,15.53,12.59,21.92a92,92,0,0,0,11.33,15.26c20.1,21.56,40.94,42.92,62.86,63.43l8.16,7.78c2.73,2.58,5.41,5.23,8.26,7.69l16.89,15,8.47,7.51,4.24,3.75c1.41,1.25,2.82,2.51,4.29,3.7l17.48,14.43A1157.77,1157.77,0,0,0,660.09,2377c50.63,29.83,102.31,54.56,152.74,73.34s99.8,31.1,145.33,37.53c-3.39-3.57-6.21-6.43-8.17-8.41Z"/><path class="o" d="M512.75,2458.18c8.32,5.85,17,11.19,25.57,16.68l25.85,16.32,26.42,15.47c8.85,5.09,17.6,10.36,26.68,15.08,18.07,9.61,36,19.49,54.58,28.23l27.74,13.38,28.26,12.45c18.76,8.48,38.11,15.78,57.34,23.34l7.23,2.8c2.4.95,4.87,1.75,7.31,2.63l14.67,5.15c9.8,3.4,19.57,6.86,29.43,10.11l29.85,9.15,15,4.5c5,1.46,10.08,2.73,15.12,4.09l30.34,7.92c5,1.36,10.18,2.47,15.29,3.61l15.37,3.4-14.84-5.14c-4.94-1.7-9.9-3.34-14.77-5.21q-14.67-5.43-29.33-10.68l-7.33-2.61c-2.44-.88-4.9-1.69-7.31-2.65l-14.49-5.54q-14.5-5.5-29-10.84L819,2598.52c-9.55-3.78-19.21-7.28-28.62-11.32-18.9-7.89-38-15.25-56.67-23.51l-28.2-12-27.89-12.53c-18.76-8.07-37-17.07-55.55-25.61-9.32-4.19-18.34-8.89-27.51-13.37l-27.5-13.52-27.17-14.17C530.83,2467.79,521.64,2463.22,512.75,2458.18Z"/><path class="p" d="M987.27,2589.5c-25.72-3.8-51.55-9.54-77.89-15.88q-19.58-5.22-39.54-10.95c-3.34-.92-6.63-2-9.92-3.07l-9.92-3.25q-9.94-3.28-20-6.69a1056.09,1056.09,0,0,1-160.77-72.19,1166.2,1166.2,0,0,1-158.82-105.71L491,2356.14c-3.24-2.63-6.5-5.24-9.72-7.91L471.8,2340l-19.11-16.69-4.79-4.21c-1.59-1.41-3.21-2.79-4.75-4.27L433.8,2306c-12.45-11.79-25.17-23.5-37.24-36.13l-18.37-18.79c-3.1-3.12-6.07-6.37-9.07-9.61l-9-9.74L211.28,2061.25C158.55,2000.85,103.43,1937.63,46.67,1876c-14.22-15.35-28.48-30.73-42.92-45.8-7.17-7.61-14.45-15-21.67-22.55-3.61-3.76-7.28-7.41-10.91-11.13s-7.24-7.45-10.92-11.08c-29.24-29.33-58.74-57.82-88.65-84.75l-11.18-10.1-11.25-9.9-5.6-5-5.61-4.84-5.59-4.84-5.6-4.74q-22.37-19-44.72-36.15c-29.85-22.84-59.82-42.93-90.62-59.51-8.92-4.94-19.41-8.77-31-12A183.8,183.8,0,0,0-377,1548a220,220,0,0,0-41.85,2.06,227.15,227.15,0,0,0-42.64,10.54,205.77,205.77,0,0,0-39.53,19A189.93,189.93,0,0,0-518.62,1592l-4.12,3.36-4,3.46q-1.8,1.72-3.64,3.39c-1.18,1.19-2.35,2.37-3.55,3.54a184.82,184.82,0,0,0-24.95,32.45A222.34,222.34,0,0,0-577,1675.4a100,100,0,0,0,2.7,15.69c1.27,4.8,2.45,9.08,3.21,12.71.18.91.28,1.79.36,2.63a14.26,14.26,0,0,1,.14,2.41,12.52,12.52,0,0,1-.28,2.23,8.34,8.34,0,0,1-.64,2c-1.27,2.62-3.69,4.78-8.2,6.53a95.63,95.63,0,0,0,6.79,22.94l.57,1.36c.19.45.44.87.65,1.31l1.29,2.63c.93,1.77,2,3.57,3,5.38l.37.68.43.64.84,1.29,1.66,2.59a30.34,30.34,0,0,0,1.78,2.51l1.81,2.49a110,110,0,0,0,17.44,18,136.06,136.06,0,0,0,22.43,14.92c16.51,8.87,36,15.42,56.69,19.7a340.66,340.66,0,0,0,65.06,6.63c11.15.11,22.37-.23,33.58-1l8.4-.7,8.38-.86,17.48-2.3c2.92-.4,5.85-.73,8.76-1.19l8.71-1.45,8.71-1.44c2.9-.48,5.82-.91,8.69-1.53l17.31-3.43c1.44-.29,2.89-.54,4.32-.87l4.29-1,8.59-2,8.58-2c2.86-.64,5.68-1.47,8.52-2.2l17-4.48,16.84-5,4.21-1.24,2.1-.62,2.08-.68L-194,1786l8.31-2.73,4.15-1.36c1.38-.46,2.74-1,4.11-1.47l16.42-5.92c2.75-.95,5.44-2,8.14-3.1l8.09-3.19,8.08-3.18c2.7-1,5.33-2.24,8-3.35A879.75,879.75,0,0,0,3.07,1693l15.75-10.09,15.53-10.47c2.58-1.77,5.19-3.47,7.74-5.29l7.64-5.44,7.64-5.44,3.82-2.72,3.76-2.81,15-11.26c5-3.79,9.88-7.71,14.82-11.57l7.39-5.82,7.28-6c4.83-4,9.73-7.92,14.51-12,19.2-16.2,37.86-33.09,56.18-50.36s36-35.29,53.35-53.6,34.17-37.18,50.6-56.39c4.12-4.79,8.14-9.67,12.21-14.5l6.09-7.27,6-7.36c4-4.93,8-9.77,11.92-14.77l11.69-15,11.7-15,5.85-7.51c1.93-2.52,3.8-5.1,5.7-7.64L378,1324.05l2.84-3.83,2.77-3.89,5.53-7.79L400.19,1293l11.07-15.58,10.81-15.8c29-41.94,56.89-84.91,84.59-128.1C562,1047.07,615.81,959,672.93,872.48c10.39-16.16,20.79-32.44,31.58-48.66l16.17-24.42c5.41-8.16,11-16.25,16.54-24.4L754,750.55l17.18-24.37q17.17-24.44,35.08-48.67c47.56-64.67,97.73-128.52,146.59-194,24.45-32.74,48.55-65.92,71.79-99.79s45.6-68.46,66.52-103.93c2.65-4.41,5.21-8.88,7.76-13.35l7.65-13.42,7.42-13.54,3.7-6.78,3.59-6.83,7.15-13.69c2.34-4.58,4.6-9.2,6.9-13.81,4.66-9.18,8.94-18.53,13.33-27.83A972.54,972.54,0,0,0,1193,55.82a78.28,78.28,0,0,0-33.29,7.73c-2.77,1.29-5.48,2.76-8.27,4.37s-5.57,3.39-8.34,5.33-5.52,4.06-8.25,6.35q-2,1.72-4.08,3.57c-1.37,1.23-2.77,2.49-4.15,3.8q-4.15,3.93-8.24,8.4c-2.73,3-5.39,6.15-8.19,9.46s-5.5,6.83-8.22,10.54c-1.37,1.85-2.68,3.76-4.08,5.69s-2.78,3.92-4.16,6c-2.77,4.07-5.47,8.34-8.21,12.81s-5.59,9.1-8.35,14-5.61,9.91-8.41,15.18q-2.11,4-4.2,8.07l-4.3,8.37-4.72,8.17c-1.57,2.72-3.12,5.44-4.76,8.13l-9.64,16.15-9.84,16-2.45,4-2.51,4-5,7.91q-20.08,31.56-41,62.17t-42.33,60.54q-21.46,29.94-43.12,59.41c-57.79,78.67-116.17,155.69-170.7,235.6l-20.12,30-10,15-9.73,15-19.32,29.92-18.8,29.88-9.35,14.91L627.76,817l-18.24,29.72-17.91,29.6-17.74,29.5c-47,78.49-92.18,155.78-139,230.82-31.92,58.41-65.75,114.84-102.6,168l-13.94,19.81c-2.35,3.28-4.63,6.62-7,9.83l-7.23,9.61L289.49,1363l-7.3,9.51-7.46,9.25q-29.87,36.91-62.52,70.56,31.64-36.63,60.39-76.27c4.84-6.5,9.5-13.34,14.19-20.09l14-20.33,3.49-5.09L306,1328l1.69-2.6,6.74-10.44,13.41-20.91c-11.58,15.87-22.89,32.06-34.9,47.51L275.2,1365c-3,3.89-6,7.64-9,11.48s-6,7.66-9.08,11.43q-36.68,45.43-76.71,88.23t-84,82l-5.49,4.9c-1.83,1.64-3.66,3.28-5.53,4.86l-11.19,9.58-5.61,4.79-5.7,4.67-11.41,9.37c-3.82,3.11-7.72,6.09-11.58,9.15L34.06,1610c-1.93,1.53-3.87,3.05-5.85,4.51l-11.83,8.87c-2,1.47-3.94,3-5.94,4.43l-6,4.3c2-1.19,3.94-2.42,5.91-3.66s3.9-2.56,5.87-3.8a943.18,943.18,0,0,1-95.78,61.85c-10.08,6.49-20.57,12.31-31.08,18.26l-16,8.38-4,2.08c-1.35.68-2.72,1.31-4.08,2l-8.2,3.89-8.22,3.87c-2.75,1.28-5.55,2.42-8.32,3.63l-8.36,3.58c-2.8,1.17-5.56,2.44-8.4,3.49l-17,6.53c-2.82,1.13-5.7,2-8.56,3l-8.59,2.95c-2.87,1-5.72,2-8.6,2.9l-8.67,2.63-8.67,2.63c-1.45.43-2.88.9-4.34,1.29l-4.37,1.16-17.45,4.62-17.53,4-4.37,1c-1.46.32-2.93.57-4.4.86l-8.79,1.68-8.77,1.68c-2.92.55-5.86.93-8.79,1.41l-8.77,1.37-4.38.69-2.19.34-2.2.26-17.5,2.14-3.09.44-2.92.32c-2,.2-4,.46-6.09.64l-6.44.55-6.76.43c-9.21.51-19.22.72-29.66.4a299.47,299.47,0,0,1-32.17-2.65,222.09,222.09,0,0,1-31.73-6.62l-3.84-.88-1.34-.3-1.43-.39-3.26-.86c-1.2-.28-2.39-.67-3.66-1.07s-2.66-.78-4-1.25l-4.26-1.5c-.76-.24-1.46-.55-2.19-.84l-2.23-.9a103.85,103.85,0,0,1-17.71-9.26,64.33,64.33,0,0,1-14.31-12.52q-.71-.89-1.46-1.76a5.68,5.68,0,0,1-.68-.91l-.65-.93c-.42-.63-.93-1.2-1.33-1.85s-.77-1.32-1.17-2l-.62-1c-.2-.33-.34-.7-.52-1q-.52-1-1.08-2.06l-.29-.51c-.08-.16-.12-.31-.19-.47l-.38-.91a13,13,0,0,1-.75-1.84,47.45,47.45,0,0,1-2.93-16.25q0-1.1,0-2.17c0-.72.11-1.47.14-2.19l.06-1.08c0-.36.09-.73.14-1.1l.26-2.16a58.53,58.53,0,0,1,2-8.4,45.74,45.74,0,0,1,6.69-13.61,107.5,107.5,0,0,1,5.07-12.24c1.62-3.21,2.92-5.51,3.66-6.85,6.18-10,14-18.71,22.13-24.6q.76-.55,1.5-1.12c.53-.39,1.22-.82,1.81-1.24s1.21-.86,1.84-1.26l1.91-1.19c1.23-.84,2.6-1.53,3.88-2.32s2.7-1.44,4-2.19a126.87,126.87,0,0,1,17.46-7.32c24.57-8.36,54.88-10.15,84.32-5.2a211.77,211.77,0,0,1,21.8,4.8c1.79.54,3.53,1,5.35,1.58l5.6,1.83c3.73,1.1,7.46,2.59,11.19,3.94A314.35,314.35,0,0,1-294,1648.13c29.67,16.83,59,38.7,88,63.64,2.25,1.58,4.5,3.28,6.75,4.94l6.75,5,13.52,10.5,3.38,2.63,3.34,2.72,6.67,5.47,6.67,5.48c2.21,1.86,4.4,3.77,6.59,5.66l6.58,5.69c2.19,1.91,4.39,3.78,6.55,5.77l13,11.82c4.3,4,8.54,8.12,12.8,12.2s8.46,8.29,12.65,12.52c8.42,8.39,16.64,17.2,24.84,26l12.16,13.57c4,4.54,8,9.25,12,13.91,15.88,18.79,31.32,38.41,46.28,59.09,20.18,28.56,44.08,60.56,68.95,92.77s50.75,64.66,74.67,93.65,45.82,54.49,61.86,73l10.84,12.49,8.24,9.56c4.53,5.34,7,8.53,7,9.17q28,30.51,58,60.41l15.21,14.83,3.82,3.7L307,2288l7.79,7.33,7.81,7.31,8,7.16,16.06,14.29,12.42,9.05c1,.75,2.06,1.52,3.11,2.25l3.17,2.18,6.33,4.36,25.24,17.47,6.29,4.37c2.1,1.45,4.27,2.82,6.4,4.23l12.81,8.43,25.54,16.89,25.91,16.32,12.91,8.21,3.22,2.06,3.28,2,6.56,3.95L526,2441.73l6.52,4c2.18,1.32,4.42,2.56,6.62,3.85l13.25,7.69,26.45,15.49q13.42,7.46,26.79,15l13.36,7.61c2.21,1.3,4.49,2.47,6.75,3.7l6.78,3.66q13.55,7.33,27.07,14.8c2.26,1.23,4.49,2.52,6.77,3.72l6.86,3.57,13.71,7.2,13.7,7.28c4.57,2.43,9.09,5,13.75,7.24q13.89,7,27.76,14.21c4.63,2.38,9.23,4.85,13.89,7.2l14.07,6.94q15.32,5.43,30.67,10.74c10.35,3.3,20.74,6.5,31.14,9.69l15.6,4.75c2.59.82,5.25,1.47,7.88,2.2l7.91,2.12q15.82,4.23,31.69,8.35l3.56.91,3.54.78L909,2616q6.78,1.41,13.1,2.57,12.64,2.33,23.47,3.72l2.69.33,2.66.24,5.15.4q5,.35,9.68.5c6.17.2,11.8.14,16.91-.15,20.39-1,32.8-6.54,39.19-13.9q-4.9-2.44-9.52-4.88c-3.08-1.63-6.07-3.22-8.92-5Q994.79,2594.63,987.27,2589.5Z"/></g></g></g><g class="a"><g class="b"><g class="b"><path class="q" d="M69.37,2660.82c-4.24,2.31-6.37,5.14-7,8.39a12.65,12.65,0,0,0,.14,5.15,26.57,26.57,0,0,0,2.06,5.61,58.43,58.43,0,0,0,3.43,6c1.33,2,2.88,4.11,4.47,6.23l5,6.44c1.72,2.16,3.46,4.32,5.12,6.52-.69-3.34-1.4-6.65-1.9-10.09-2-5.58-4.13-11.17-6-16.91-.93-2.86-1.9-5.71-2.78-8.61Z"/><path class="q" d="M80.65,2695.08c.5,3.44,1.21,6.74,1.9,10.09,1.68,2.2,3.2,4.4,4.64,6.58-1.13-2.71-2.2-5.49-3.31-8.26S81.65,2697.93,80.65,2695.08Z"/><path class="q" d="M78.38,2657.47a40.61,40.61,0,0,0-9,3.35l2.55,8.75c.88,2.9,1.85,5.75,2.78,8.61,1.82,5.74,3.92,11.32,6,16.91q-.74-4.7-1.32-9.39c-.42-3.11-.6-6.3-.82-9.43s-.38-6.25-.35-9.41S78.23,2660.58,78.38,2657.47Z"/><path class="q" d="M87.19,2711.74c2.51,5.73,4.85,11.71,7.55,17.25C93.79,2723.08,91,2717.32,87.19,2711.74Z"/><path class="r" d="M466.91,2950.63q-36.23-29.91-69-62.24l-16-16.4c-2.72-2.68-5.22-5.54-7.79-8.34l-7.68-8.41c-2.54-2.81-5.16-5.56-7.64-8.41l-7.32-8.63-7.33-8.6c-1.21-1.44-2.46-2.84-3.65-4.3l-3.48-4.42L323,2803.29l-6.52-8.73-6.34-8.81q-12.51-17.7-23.53-36a493.3,493.3,0,0,1-36.9-74c2.8,31.16,9.53,63.35,20,90.77,1.83,5.23,4,10.3,6.28,15.36,1.17,2.51,2.4,5,3.65,7.47.63,1.24,1.25,2.47,1.91,3.7l2,3.64c1.37,2.41,2.73,4.84,4.19,7.2s3,4.71,4.48,7,3.14,4.61,4.74,6.89,3.22,4.54,5,6.77a329.65,329.65,0,0,0,47.65,49.56q6.63,5.62,13.37,11.1c4.63,3.54,9.33,7,14,10.43l7.07,5.13,3.55,2.54,3.67,2.43,14.71,9.6c2.46,1.58,4.89,3.19,7.38,4.73l7.58,4.51,15.12,9c2.48,1.52,5.1,2.9,7.67,4.32l7.71,4.25,7.68,4.25,3.83,2.13C464.31,2949.26,465.59,2950,466.91,2950.63Z"/><path class="s" d="M225.85,2533.63c.73-7.35,2.13-14.48,3.55-21.59s3.56-14.35,5.88-21.65,5-14.71,8.17-22.25,6.66-15.19,10.53-23a236.74,236.74,0,0,0-12.52,21.71,172.05,172.05,0,0,0-9.22,22.07,126.82,126.82,0,0,0-5.4,22.26A113.12,113.12,0,0,0,225.85,2533.63Z"/><path class="r" d="M459,2951l-15.42-8.57-7.75-4.29-7.58-4.49-15.21-9c-2.57-1.48-5-3.08-7.49-4.67l-7.41-4.78c-4.92-3.21-9.92-6.37-14.75-9.7s-9.53-6.81-14.26-10.27L362.1,2890l-1.77-1.31-1.7-1.37-3.4-2.75q-6.78-5.52-13.45-11.18c-4.52-3.71-8.67-7.74-12.86-11.74s-8.3-8.08-12.35-12.2-7.71-8.56-11.45-12.92q-2.8-3.28-5.53-6.6c-1.82-2.22-3.66-4.44-5.3-6.71A237.74,237.74,0,0,1,276,2795a211,211,0,0,1-13.7-30.47c-10.25-27.72-16.82-60.17-19.26-91.58a363.11,363.11,0,0,1-17.13-59.54l-.7-3.66c-.25-1.22-.47-2.44-.64-3.65l-1.16-7.26c-.58-4.81-1.29-9.62-1.64-14.36a242,242,0,0,1-1.06-28,236.13,236.13,0,0,1,2-26.86c.26-2.2.7-4.35,1-6.52.18-1.08.31-2.18.53-3.25l.66-3.21c.8-4.27,1.8-8.56,2.92-12.88a294.55,294.55,0,0,1,20-53.29c5.22-16.85,13.65-33.7,24-50.11,5.16-8.21,10.87-16.34,16.93-24.38S301.26,2360,308,2352c14.21-20.31,29.55-41.37,45.41-63.7,4-5.59,8-11.24,12-17.06s8-11.54,12-17.4l11.9-17.65c3.95-5.92,7.83-12,11.75-17.93,15.55-24.09,30.75-48.79,45.25-74.39s28.27-52.13,41.16-79.52l9.47-20.73c3-7,6-14.09,9-21.15l2.24-5.3,2.12-5.39,4.21-10.81,4.2-10.83,3.92-11,3.9-11c.64-1.85,1.31-3.67,1.93-5.54l1.79-5.63c2.38-7.51,4.8-15,7.09-22.56l6.41-23c1.11-3.81,2-7.72,3-11.61l2.81-11.69,1.39-5.85c.47-1.95.93-3.89,1.34-5.91l2.51-12c1.54-8,3.08-16.09,4.36-24.2,2.63-16.2,4.81-32.52,6.31-49s2.48-33,2.87-49.69.08-33.46-.79-50.32c-.26-4.22-.42-8.43-.78-12.66l-1-12.68-1.32-12.71c-.42-4.24-1-8.49-1.57-12.73-2.27-17-5.18-34-8.91-51A572.64,572.64,0,0,0,521.72,1488a540.66,540.66,0,0,0-23.87-49.16c-4.51-8-9.09-16-14-23.85-1.22-2-2.43-3.94-3.68-5.89l-3.84-5.81c-2.57-3.86-5.12-7.79-7.83-11.45a589.57,589.57,0,0,0-69.35-81.3,845.85,845.85,0,0,0-74.58-64.75c-24.91-19.37-49.54-36.88-73.28-53.42l-34.9-24.13-16.81-11.66L183,1145q-33-23.3-65.58-47.62c-10.2-7.6-43.25-29.78-76.87-51.55C23.75,1035,6.76,1024.3-7.84,1016c-7.3-4.18-14-7.8-19.77-10.5s-10.63-4.58-14.26-5.26c-6.9-3.43-13.76-6.92-20.63-10.42s-13.72-7-20.58-10.6l-4.43,5.07c14.74,13.38,29.26,26.86,44.56,40.11a490.76,490.76,0,0,0,49.7,38.12c20.15,16.21,44.91,26.3,65.37,41.91,23,17.56,45.37,34.67,67.8,51.36,5.59,4.19,11.22,8.31,16.85,12.44s11.27,8.21,16.94,12.27l8.54,6.1,8.69,6.11c5.75,4,11.76,8.19,17.73,12.29,24,16.52,49.54,33.42,77,52.05,6.86,4.71,13.8,9.32,20.9,14.33l10.72,7.39,10.91,7.77c7.34,5.07,14.78,10.72,22.37,16.21l2.85,2.07,2.85,2.19,5.75,4.39,5.8,4.42c1.94,1.49,3.9,2.91,5.85,4.52,19.81,13.58,38.86,41.18,54.91,70.72l1.53,2.73c.51.91,1,1.88,1.46,2.81l2.89,5.63,5.73,11.11,1.42,2.73,1.36,2.79,2.71,5.52,2.72,5.4,2.6,5.34c7.07,14,13.55,26.83,20.92,37a405.26,405.26,0,0,1,29.56,66,439.29,439.29,0,0,1,17.09,66.48,499.58,499.58,0,0,1,7.08,65.2,582.84,582.84,0,0,1-.85,63.21c-2.76,41.47-9.38,81.5-18.26,120.92l-3.45,14.77-3.72,14.51-1.83,7.27c-.62,2.42-1.16,4.87-1.87,7.26l-4,14.44c-2.49,9.71-5.46,19.23-8.17,28.9l-2,7.26-2.2,7.19q-2.18,7.21-4.3,14.5c-9.24,31.75-18.78,60.36-28.62,87.28l-7.48,19.88-7.76,19.25-1.94,4.77c-.65,1.59-1.34,3.13-2,4.7l-4.05,9.34-4.08,9.31c-1.35,3.11-2.81,6.11-4.23,9.17-2.86,6.08-5.72,12.18-8.69,18.22s-6.08,12-9.2,18l-2.36,4.51-2.44,4.45-5,8.93-5.07,9c-1.73,3-3.51,5.92-5.3,8.9l-5.45,8.95c-1.84,3-3.7,6-5.64,9q-5.77,8.93-11.9,18T341,2259.66c-4.41,6.12-9,12.12-13.63,18.19-7.63,11.23-15.56,26-23.13,40.4s-14.78,28.53-21.42,38.85c-23.18,32.57-43.18,64-57.73,94.74a311.85,311.85,0,0,0-17.57,45.7c-1.16,3.79-2.08,7.56-3.06,11.35l-1.27,5.68-.66,2.84-.52,2.88-1.09,5.76c-.32,1.93-.56,3.89-.87,5.83-.67,3.88-1,7.85-1.45,11.8-.13,1-.21,2-.27,3l-.21,3c-.12,2-.36,4-.41,6-.11,4-.4,8.09-.33,12.19,0,2,0,4.1,0,6.16l.19,6.21.08,3.11.21,3.13.38,6.28a367.4,367.4,0,0,0,7.92,51.31,466.16,466.16,0,0,0,15.47,52.3c6.35,17.46,13.73,34.91,22,52.22a81.16,81.16,0,0,1,5.95,11.92c.87,2.07,1.68,4.2,2.43,6.36.38,1.08.74,2.18,1.09,3.28s.74,2.19,1.09,3.3c1.41,4.44,2.65,9,4,13.62l1.93,7,2.07,6.94a147.72,147.72,0,0,0,10.51,26.7,80.72,80.72,0,0,0,7.64,11.73,66.67,66.67,0,0,0,10.11,9.91q4.11,2.66,8.13,5.35l4,2.7,2,1.35,2,1.3q8.17,5.22,16.05,10.57l7.83,5.37,8,5.2q7.92,5.23,15.63,10.55L356,2893l2,1.28,4,2.56,7.85,5.15,7.78,5.18,3.86,2.6,4,2.5,15.75,10,3.91,2.51c1.3.84,2.6,1.68,3.95,2.46l8,4.78c4.75,3.87,6,12,8.62,21.21,2.75,9,6.88,19.12,16.85,26.8q7.07,5.77,14.26,11.25,3.59,2.75,7.2,5.43c1.21.89,2.4,1.8,3.63,2.66l3.71,2.53q7.43,5,14.91,9.86c2.5,1.6,5,3.21,7.5,4.75l7.66,4.47q7.66,4.42,15.34,8.68c1.28.71,2.55,1.42,3.84,2.11l3.91,2,7.81,4,15.57,7.74,15.75,7.18c41.95,18.93,84,34.37,124.25,52.62-3.63-4-7.31-7.92-11.05-11.71-39.45-20.61-77.57-42.74-114-66.48A1107.54,1107.54,0,0,1,459,2951Z"/><path class="r" d="M935.44,3197.38c-7.43-.29-14.67-.82-21.79-1.43s-14.09-1.33-20.82-2.3c9.6,4.93,19.56,9.65,29.75,14.3s20.76,8.93,31.49,13.19,21.77,8.15,33,11.93,22.57,7.32,34.11,10.59a835.62,835.62,0,0,0,142.24,27.52C1085.46,3247.59,1009.26,3223.74,935.44,3197.38Z"/><path class="r" d="M800.26,3150.67c.72.69,1.41,1.42,2.12,2.11-43.14-18.39-85.21-38.06-125.64-59.18,3.74,3.78,7.43,7.66,11.05,11.71l4.47,2.07,4.5,2q4.49,2.05,8.94,4.19t8.86,4.37l8.81,4.51q8.82,4.5,17.47,9.46c2.89,1.64,5.73,3.39,8.62,5.07s5.75,3.42,8.61,5.21c6,3.85,12.22,7.74,18.56,11.5,10,1.89,20.62,3.4,31.46,4.7,1.4,1.36,2.82,2.64,4.19,4,8.81,8.39,20.31,15.15,34,20.13q5.13,1.9,10.62,3.54c3.66,1.1,7.43,2.13,11.34,3,7.8,1.79,16,3.28,24.56,4.52-6.55-3.43-13.1-6.93-19.39-10.44-6-3.19-11.94-6.33-18-9.29s-12.11-5.73-18.23-8.38-12.21-5.3-18.39-7.76q-4.63-1.84-9.3-3.59Z"/><path class="t" d="M695.55,3321.63q-7.93-5.28-15.63-9.77c-5.13-3-10.17-5.94-15.17-8.58s-9.93-5.09-14.83-7.36-9.72-4.52-14.54-6.53c-19.25-8-38-14.37-56.88-20.59-9.4-3.25-18.84-6.47-28.38-9.92s-19.05-7.5-28.77-11.86a290.2,290.2,0,0,1-59.42-36.1c-7.51-5.53-14.89-11.28-22.35-16.77s-15-10.79-22.33-16.3-14.88-10.7-22.32-16-14.79-10.69-22.22-15.9l-5.58-3.89-5.52-4-11.06-7.94-11.11-7.83c-1.87-1.27-3.68-2.64-5.51-4l-5.49-4-22-16L284.62,3082a1141.85,1141.85,0,0,0,93.94,79.17l12.1,9.19,12.27,8.82,12.29,8.78c2.06,1.45,4.09,2.95,6.16,4.35l6.23,4.2c8.32,5.57,16.6,11.23,25,16.67l25.29,15.93q50.89,31.1,103.76,57.08c8.83,4.25,17.67,8.52,26.53,12.68q13.31,6,26.68,11.92c4.45,2,8.93,3.84,13.41,5.71l13.45,5.57c4.49,1.82,9,3.75,13.49,5.46l13.54,5.22C687.87,3328.55,689.19,3324.57,695.55,3321.63Z"/><path class="u" d="M1097.37,3346.58c-28.81,4.13-63.69,1-108.82-15.33-38-14-71.62-31.3-103.45-47.72-15.94-8.14-31.39-16.3-46.86-23.54-7.71-3.72-15.41-7.24-23.18-10.49l-5.83-2.39q-2.91-1.21-5.83-2.37-5.85-2.31-11.77-4.4C748,3223,702,3207.62,655.16,3190.92s-94.49-35-140.63-57.2l-8.65-4.17c-2.88-1.4-5.77-2.78-8.59-4.28q-8.51-4.44-17-9l-8.46-4.54c-2.81-1.53-5.56-3.18-8.33-4.77q-8.3-4.83-16.53-9.75c-5.52-3.22-10.84-6.77-16.19-10.25s-10.64-7-15.9-10.62-10.31-7.47-15.4-11.26l-7.59-5.74c-2.5-1.94-5.05-3.81-7.47-5.87-39.33-31.84-73.49-69.29-97.86-111.79q-4.36-7.27-8.88-14.41c-2.89-4.87-5.8-9.74-8.78-14.54s-6-9.57-9.08-14.3q-4.39-7.3-8.92-14.49c-3-4.8-6.11-9.54-9.19-14.3s-6.09-9.59-9.07-14.45c-6.09-9.61-12-19.39-18-29.13l-4.43-7.37-2.24-3.68-2.19-3.71-4.42-7.41-4.34-7.48-2.19-3.74-2.13-3.77-4.3-7.54-4.21-7.61-2.12-3.81-2.06-3.84c-5.6-10.2-10.86-20.63-16.09-31.13-2.52-5.29-5.15-10.56-7.55-15.93s-4.84-10.75-7.22-16.16c-1.2-2.71-2.27-5.46-3.42-8.19s-2.29-5.47-3.34-8.25l-3.24-8.31-3-8.4c-.5-1.4-1-2.8-1.52-4.21l-1.42-4.25c-.93-2.84-1.94-5.66-2.82-8.52l-2.63-8.6L127,2642l-.6-2.17-1.2-4.34c-1.69-5.78-3-11.65-4.49-17.51l-1.9-8.86c-.31-1.48-.66-3-.93-4.45l-.81-4.47-.81-4.48c-.28-1.49-.55-3-.75-4.49l-1.33-9c-.44-3-.71-6-1.07-9.07l-.51-4.55-.36-4.56a318,318,0,0,1,2.3-73.61,326.12,326.12,0,0,1,19.64-71.76c3.68-9.26,7.1-19.52,10.69-30.29s7.31-22,11.34-33.2c8-22.39,17.39-44.45,28.3-61.41,18.22-28.23,36.83-54.93,54.64-81.17s34.7-52.11,50.58-78.16c31.8-52,59.48-104.56,81.64-159.22,4.45-10.57,8.38-20,12.61-28.41,2.16-4.19,4-8.24,6.09-12.06s4.05-7.46,6.11-11l1.54-2.6,1.46-2.58q1.47-2.55,2.95-5c2-3.3,4-6.5,6-9.65l3-4.7,2.85-4.71,5.72-9.44,2.86-4.8,1.42-2.44c.46-.82.89-1.65,1.34-2.49,1.77-3.34,3.52-6.78,5.24-10.35s3.45-7.27,5.08-11.17,3.09-8,4.51-12.35a196.14,196.14,0,0,0,7-29.2,234.61,234.61,0,0,0,3-36.77c.21-3.4,1.51-7.58,3.05-12.22s3.69-9.71,5.61-14.86c1-2.57,2-5.15,2.86-7.69s1.67-5,2.37-7.45a44.26,44.26,0,0,0,2.15-12.72,562.59,562.59,0,0,0-18-120.47,491.53,491.53,0,0,0-19.58-58.48c-1.86-4.81-4-9.51-6.07-14.26-1-2.38-2.17-4.7-3.25-7l-3.32-7c-4.64-9.27-9.42-18.49-14.7-27.45l-3.94-6.73-4.14-6.62c-2.71-4.45-5.67-8.74-8.57-13.07-1.42-2.19-3-4.28-4.5-6.37l-4.6-6.3-4.6-6.3c-1.59-2.05-3.23-4-4.85-6.08a502.42,502.42,0,0,0-41.29-46c-14.46-14.56-29.72-28-45.19-41S248.29,1322,232.37,1310c-31.87-24-64.16-46.45-95.37-69.31s-61.88-46.33-91.9-70.48c-60.09-48.22-117.64-99-172.4-151.44-12.74,10.13-23,21.81-30.19,34.55L-36,1156.46c40.69,34.4,81.73,68.49,123.1,101.63s83.48,64.72,122.4,97.16c19.47,16.22,38.16,32.69,55.58,49.67a573.37,573.37,0,0,1,48,52.54l1.81,2.3,1.7,2.37,3.4,4.74,3.41,4.72c1.13,1.57,2.31,3.12,3.33,4.76l6.35,9.66c1,1.62,2.17,3.18,3.14,4.83l3,4.91a397,397,0,0,1,21.34,40.61,435.64,435.64,0,0,1,28.77,87.29c13.14,60.25,14.64,123.54,5.89,185.47-.54,3.87-1.18,7.73-1.77,11.6s-1.35,7.71-2,11.56-1.51,7.68-2.26,11.52-1.74,7.68-2.61,11.52l-2.63,11.52c-1,3.83-2,7.63-3,11.45l-3.07,11.44c-1.12,3.79-2.31,7.57-3.46,11.36a722.91,722.91,0,0,1-34,89.1c-26.61,58.18-60.43,113.54-98.79,166.09l-6.72,9.29-6.86,9.28-6.89,9.32-7,9.38-28.8,38.32c-19.41,26.09-39.11,53.32-57.39,82.76-4.59,7.33-9,14.86-13.41,22.47s-8.58,15.41-12.62,23.37a474.27,474.27,0,0,0-22,49.5,392.12,392.12,0,0,0-15.93,53,356.93,356.93,0,0,0-7.84,55.14,37,37,0,0,1,9.61-.23q-1.75,4.45-3.32,9c-1,3.06-1.84,6.15-2.69,9.28a175.82,175.82,0,0,0-3.89,19.16c.1,3.11.36,6.18.54,9.26s.35,6.15.71,9.2a60.28,60.28,0,0,1,2.13,9.85,36.79,36.79,0,0,1,.13,9.44l-.69-4.77c-.23-1.6-.44-3.2-.59-4.82l-1-9.7c-.79-2.63-1.56-5.27-2.49-8l-.44,5.28c-.1,1.76-.15,3.52-.21,5.28-.09,3.53-.19,7.08-.13,10.62.21,7.07.54,14.19,1.41,21.22.69,7.08,2,14,3.23,21,1.5,6.89,3,13.81,5,20.52l1.45,5c.48,1.68,1,3.35,1.55,5q1.64,5,3.34,9.85c1.14,3.26,2.43,6.45,3.66,9.64l1.88,4.77c.64,1.58,1.33,3.13,2,4.68,1.35,3.11,2.7,6.19,4.07,9.25l4.32,9c1.42,3,2.93,5.89,4.45,8.78s3,5.75,4.54,8.56c12.36,22.46,25.46,42.45,37,60.3s21.3,33.69,27.13,48.32a384.31,384.31,0,0,0,17.46,37.32c6.61,12.24,13.9,24.32,21.85,36.13,4,5.79,8.14,11.51,12.35,17.26s8.42,11.54,13,17,9.16,11.05,13.84,16.55l3.52,4.12c1.19,1.36,2.43,2.66,3.66,4l7.41,7.94,7.5,7.91,3.78,3.94,1.9,2,2,1.9q7.85,7.59,15.83,15.1c2.67,2.5,5.31,5,8,7.47l8.28,7.19q8.3,7.17,16.69,14.26c22.78,18.33,46.21,35.88,70.39,51.7,24,16.17,48.6,30.65,72.8,44.68l18.26,10.09c6.06,3.34,12,6.76,18.1,9.88,12.09,6.35,23.92,12.86,35.78,18.81,47.16,24.42,91.86,46.38,130.85,68.91a1127,1127,0,0,0,119.64,54.56,1050,1050,0,0,0,115.15,37.18A897.34,897.34,0,0,0,1006,3350.24a760.15,760.15,0,0,0,103.08,6.68A139.59,139.59,0,0,1,1097.37,3346.58Z"/><path class="v" d="M1102.84,3277.8c-4.09-5.64-7.86-10.56-11-14.39a469.35,469.35,0,0,1-48.48,1c-16.65-.56-33.84-1.77-51.34-3.85a821.94,821.94,0,0,1-108.39-20.47A1087.54,1087.54,0,0,1,773,3205c-36.56-13.68-72.41-29.18-106.6-45.62-6-2.73-13.49-10.16-22-19-4.24-4.47-8.65-9.46-13.31-14.34-2.33-2.45-4.7-4.89-7.13-7.28s-4.92-4.69-7.38-7a152.59,152.59,0,0,0-20.24-11.28q-2.51-1.16-5-2.21c-1.65-.73-3.29-1.44-4.93-2.11-3.28-1.34-6.54-2.55-9.8-3.66s-6.5-2.11-9.73-3-6.47-1.74-9.62-2.63c-6.33-1.72-12.62-3.2-18.84-4.66l-9.28-2.17c-3.06-.75-6.06-1.59-9.05-2.43-6-1.69-11.88-3.52-17.66-5.69a108.58,108.58,0,0,1-32.42-19l-16.31-14.31-8.15-7.1c-2.69-2.39-5.32-4.86-8-7.28l-15.95-14.47L406,2995l-7.79-7.34c-2.56-2.48-5.06-5-7.6-7.53l-15.17-15-14.75-15.31-7.38-7.61-7.16-7.81-14.31-15.54L318,2903l-6.93-7.9-6.67-8.11-13.35-16.15-12.81-16.52-6.43-8.21-6.16-8.3q-12.2-16.65-23.51-33.78c-7.55-11.4-14.67-23-21.49-34.76s-13.3-23.61-19.26-35.66a528.54,528.54,0,0,1-30.37-73.73c-4-12.51-7.53-25.11-10.39-37.78a386.58,386.58,0,0,1-6.5-38.11,321.66,321.66,0,0,1-2.35-38.15,316.73,316.73,0,0,1,2.24-37.86c3-25,9.43-50.06,18.43-74.88s20.67-49.42,33.82-73.84,27.86-48.67,43.14-73.09,31.14-49,46.56-74.41,30.32-51,44.49-77.15l5.27-9.84c1.75-3.28,3.54-6.54,5.22-9.87L361.16,2095l9.82-20.11c3.23-6.73,6.3-13.55,9.45-20.31,12.35-27.21,23.68-54.94,33.67-83.21A814.58,814.58,0,0,0,439.62,1885a19.2,19.2,0,0,1,3.43-7.38,10,10,0,0,1,5.08-3.21c3.88-1.1,8.65-.46,13.74-.2s10.5.12,15.7-2.66a24.65,24.65,0,0,0,7.56-6.46,47.56,47.56,0,0,0,6.5-12.38c3.59-14.37,6.47-28.7,8.76-43s3.84-28.43,5-42.5a672.5,672.5,0,0,0,1-83.28c-.62-13.7-1.68-27.33-2.88-40.93s-2.85-27.16-4.61-40.76c-3.64-27.2-8-54.54-13.42-82.72.47-8.83-9.22-22.61-23.17-38.06-3.42-3.89-7.26-7.82-11.18-11.86s-8.1-8.1-12.22-12.27c-2-2.09-4.22-4.14-6.35-6.22s-4.25-4.19-6.34-6.31-4.3-4.19-6.4-6.31-4.14-4.3-6.25-6.36q-5.55-5.88-10.93-11.74l-2.68-2.93-2.77-2.81-5.48-5.62c-7.15-7.64-14.57-14.65-21.7-21.9-1.76-1.84-3.64-3.49-5.44-5.25l-5.43-5.2-5.37-5.22c-1.78-1.75-3.63-3.36-5.42-5q-5.42-5-10.76-10.08l-10.78-9.77-5.34-4.9-5.38-4.74-10.68-9.53-10.69-9.26-5.32-4.66-5.33-4.52-10.62-9.08L262.85,1291l-5.29-4.45-5.29-4.34-10.57-8.69c-14-11.38-28.1-22.67-42-33.48-7-5.48-13.9-10.77-20.92-16.1l-10.4-7.87-10.42-7.78c-27.76-20.61-56.36-40.63-87.2-59.19-34.13-18.86-65-42.33-94.89-66.81s-59-49.91-90.28-73c-4.51,3-8.78,6.13-12.86,9.42C-72.53,1071.26-15,1122,45.11,1170.22q45,36.22,91.9,70.48c31.21,22.86,63.49,45.32,95.37,69.31,15.91,12,31.8,24.28,47.26,37.34s30.73,26.49,45.19,41a502.42,502.42,0,0,1,41.29,46c1.61,2,3.26,4,4.85,6.08l4.6,6.3,4.6,6.3c1.53,2.1,3.08,4.18,4.5,6.37,2.9,4.33,5.86,8.63,8.57,13.07l4.14,6.62,3.94,6.73c5.28,9,10.06,18.18,14.7,27.45l3.32,7c1.08,2.35,2.25,4.67,3.25,7,2,4.75,4.21,9.45,6.07,14.26a491.53,491.53,0,0,1,19.58,58.48,562.59,562.59,0,0,1,18,120.47,44.26,44.26,0,0,1-2.15,12.72c-.69,2.4-1.5,4.9-2.37,7.45s-1.89,5.12-2.86,7.69c-1.91,5.14-4,10.22-5.61,14.86s-2.85,8.82-3.05,12.22c-.13,21.18-3.47,37.72-8.29,52.1s-11.23,26.66-18.4,39.58l-5.38,9.9c-1.93,3.35-3.88,6.79-5.83,10.37s-3.92,7.3-5.9,11.2-4.23,7.91-6.36,12.18q-1.59,3.2-3.19,6.59l-1.61,3.43-1.72,3.5c-2.29,4.73-4.59,9.73-6.89,15.06-.59,1.33-1.13,2.69-1.75,4l-1.86,4.14q-1.86,4.2-3.74,8.67c-1.25,3-2.49,6.06-3.77,9.22s-2.71,6.38-4.07,9.72c-22.6,55.64-50.16,107.68-81.68,159.28-15.75,25.83-32.53,51.51-50.25,77.66s-36.43,53-54.93,81.6c-10.91,17-20.27,39-28.3,61.41-4,11.19-7.75,22.45-11.34,33.2s-7,21-10.69,30.29a326.12,326.12,0,0,0-19.64,71.76,318,318,0,0,0-2.3,73.61l.36,4.56.51,4.55c.36,3,.63,6.06,1.07,9.07l1.33,9c.2,1.5.47,3,.75,4.49l.81,4.48.81,4.47c.26,1.49.62,3,.93,4.45l1.9,8.86c1.48,5.86,2.8,11.73,4.49,17.51l1.2,4.34.6,2.17.66,2.15,2.63,8.6c.88,2.86,1.89,5.68,2.82,8.52l1.42,4.25c.48,1.41,1,2.81,1.52,4.21l3,8.4,3.24,8.31c1,2.78,2.2,5.51,3.34,8.25s2.22,5.49,3.42,8.19c2.39,5.41,4.7,10.84,7.22,16.16s5,10.64,7.55,15.93c5.23,10.5,10.49,20.93,16.09,31.13l2.06,3.84,2.12,3.81,4.21,7.61,4.3,7.54,2.13,3.77,2.19,3.74,4.34,7.48,4.42,7.41,2.19,3.71,2.24,3.68,4.43,7.37c6,9.74,11.94,19.51,18,29.13,3,4.86,6.09,9.61,9.07,14.45s6.18,9.5,9.19,14.3,6,9.62,8.92,14.49q4.61,7.09,9.08,14.3c3,4.8,5.89,9.67,8.78,14.54s6,9.56,8.88,14.41c24.37,42.51,58.53,80,97.86,111.79,2.42,2.06,5,3.92,7.47,5.87l7.59,5.74c5.09,3.79,10.18,7.62,15.4,11.26s10.56,7.12,15.9,10.62,10.66,7,16.19,10.25,11,6.53,16.53,9.75c2.77,1.59,5.52,3.24,8.33,4.77l8.46,4.54q8.48,4.52,17,9c2.82,1.51,5.71,2.88,8.59,4.28l8.65,4.17c46.14,22.2,93.81,40.42,140.63,57.2S748,3223,791.63,3240.35q5.92,2.08,11.77,4.4,2.92,1.16,5.83,2.37l5.83,2.39c7.76,3.25,15.47,6.76,23.18,10.49,15.47,7.25,30.92,15.41,46.86,23.54,31.83,16.42,65.43,33.73,103.45,47.72,45.13,16.28,80,19.46,108.82,15.33-24.29-24.57-30.21-51.91-24-76.19Z"/><path class="w" d="M1084.21,3254.29l-21.24-6.75c-7.05-2.26-14.12-4.47-21.15-6.79a746,746,0,0,1-140.39-31.37c-45.28-14.84-87.94-33.88-124.79-55.65-8.41-1.68-16.44-3.68-24.06-5.9a160,160,0,0,1-21.36-7.8,115.4,115.4,0,0,1-18.11-9.89,82,82,0,0,1-14.23-12.32c-3.62-4.35-7.4-8.35-11.07-12.5-40.28-18.25-82.31-33.69-124.25-52.62l-15.75-7.18-15.57-7.74-7.81-4-3.91-2c-1.29-.69-2.56-1.4-3.84-2.11q-7.67-4.26-15.34-8.68l-7.66-4.47c-2.52-1.54-5-3.15-7.5-4.75q-7.48-4.82-14.91-9.86l-3.71-2.53c-1.23-.86-2.42-1.77-3.63-2.66q-3.61-2.68-7.2-5.43-7.18-5.5-14.26-11.25c-10-7.69-14.1-17.78-16.85-26.8-2.63-9.18-3.87-17.34-8.62-21.21l-8-4.78c-1.35-.78-2.65-1.62-3.95-2.46l-3.91-2.51-15.75-10-4-2.5-3.86-2.6-7.78-5.18-7.85-5.15-4-2.56-2-1.28-1.93-1.33q-7.72-5.32-15.63-10.55l-8-5.2-7.83-5.37q-7.89-5.35-16.05-10.57l-2-1.3-2-1.35-4-2.7q-4-2.69-8.13-5.35a66.67,66.67,0,0,1-10.11-9.91,80.72,80.72,0,0,1-7.64-11.73,147.72,147.72,0,0,1-10.51-26.7l-2.07-6.94-1.93-7c-1.34-4.59-2.57-9.18-4-13.62q-.53-1.66-1.09-3.3c-.36-1.1-.72-2.19-1.09-3.28-.75-2.16-1.56-4.29-2.43-6.36a81.16,81.16,0,0,0-5.95-11.92c-8.27-17.31-15.65-34.76-22-52.22a466.16,466.16,0,0,1-15.47-52.3,367.4,367.4,0,0,1-7.92-51.31l-.38-6.28-.21-3.13-.08-3.11-.19-6.21c0-2.06,0-4.11,0-6.16-.07-4.11.22-8.15.33-12.19,0-2,.29-4,.41-6l.21-3c.06-1,.14-2,.27-3,.48-4,.78-7.92,1.45-11.8.3-1.95.55-3.9.87-5.83l1.09-5.76.52-2.88.66-2.84,1.27-5.68c1-3.79,1.91-7.56,3.06-11.35a311.85,311.85,0,0,1,17.57-45.7c14.55-30.77,34.55-62.17,57.73-94.74,6.64-10.32,13.83-24.42,21.42-38.85s15.5-29.18,23.13-40.4c4.67-6.07,9.21-12.07,13.63-18.19s8.68-12.15,12.82-18.14,8-12.07,11.9-18c1.94-3,3.8-6,5.64-9l5.45-8.95c1.79-3,3.57-5.93,5.3-8.9l5.07-9,5-8.93,2.44-4.45,2.36-4.51q4.69-9,9.2-18c3-6,5.83-12.15,8.69-18.22,1.41-3.06,2.88-6.06,4.23-9.17l4.08-9.31,4.05-9.34c.67-1.57,1.36-3.11,2-4.7l1.94-4.77,7.76-19.25,7.48-19.88c9.84-26.92,19.38-55.53,28.62-87.28q2.12-7.29,4.3-14.5l2.2-7.19,2-7.26c2.71-9.68,5.68-19.19,8.17-28.9l4-14.44c.71-2.39,1.25-4.84,1.87-7.26l1.83-7.27,3.72-14.51,3.45-14.77c8.88-39.43,15.5-79.46,18.26-120.92a582.84,582.84,0,0,0,.85-63.21,499.58,499.58,0,0,0-7.08-65.2A439.29,439.29,0,0,0,501.45,1538a405.26,405.26,0,0,0-29.56-66c-7.38-10.14-13.85-23-20.92-37l-2.6-5.34-2.72-5.4-2.71-5.52-1.36-2.79-1.42-2.73-5.73-11.11-2.89-5.63c-.49-.93-1-1.9-1.46-2.81l-1.53-2.73c-16-29.54-35.09-57.14-54.91-70.72-1.94-1.6-3.9-3-5.85-4.52l-5.8-4.42-5.75-4.39-2.85-2.19-2.85-2.07c-7.59-5.49-15-11.13-22.37-16.21l-10.91-7.77-10.72-7.39c-7.1-5-14-9.61-20.9-14.33-27.41-18.63-52.94-35.54-77-52.05-6-4.1-12-8.25-17.73-12.29l-8.69-6.11-8.54-6.1c-5.67-4.06-11.33-8.13-16.94-12.27s-11.26-8.24-16.85-12.44c-22.43-16.69-44.78-33.8-67.8-51.36-20.46-15.61-45.22-25.7-65.37-41.91A490.76,490.76,0,0,1-43,1024.35c-15.31-13.25-29.83-26.73-44.56-40.11l-16.4,18.77c-3.63,2-7.11,4.13-10.51,6.35,31.23,23.07,60.3,48.53,90.28,73s60.76,48,94.89,66.81c30.84,18.56,59.44,38.58,87.2,59.19l10.42,7.78,10.4,7.87c7,5.33,13.89,10.62,20.92,16.1,13.93,10.81,28,22.1,42,33.48l10.57,8.69,5.29,4.34,5.29,4.45,10.61,8.86,10.62,9.08,5.33,4.52,5.32,4.66,10.69,9.26,10.68,9.53,5.38,4.74,5.34,4.9,10.78,9.77q5.34,5.06,10.76,10.08c1.8,1.69,3.64,3.3,5.42,5l5.37,5.22,5.43,5.2c1.8,1.75,3.68,3.4,5.44,5.25,7.13,7.25,14.55,14.26,21.7,21.9l5.48,5.62,2.77,2.81,2.68,2.93q5.38,5.87,10.93,11.74c2.12,2.06,4.14,4.24,6.25,6.36s4.24,4.22,6.4,6.31,4.21,4.22,6.34,6.31,4.3,4.13,6.35,6.22c4.12,4.17,8.37,8.2,12.22,12.27s7.75,8,11.18,11.86c13.94,15.44,23.64,29.23,23.17,38.06,5.37,28.19,9.78,55.52,13.42,82.72q2.65,20.41,4.61,40.76c1.2,13.6,2.26,27.22,2.88,40.93a672.5,672.5,0,0,1-1,83.28c-1.14,14.07-2.7,28.25-5,42.5s-5.16,28.58-8.76,43a47.56,47.56,0,0,1-6.5,12.38,24.65,24.65,0,0,1-7.56,6.46c-5.19,2.79-10.61,2.92-15.7,2.66s-9.86-.9-13.74.2a10,10,0,0,0-5.08,3.21,19.2,19.2,0,0,0-3.43,7.38,814.58,814.58,0,0,1-25.52,86.36c-10,28.27-21.32,56-33.67,83.21-3.16,6.76-6.22,13.58-9.45,20.31L361.16,2095,351,2114.84c-1.67,3.33-3.47,6.59-5.22,9.87l-5.27,9.84c-14.18,26.16-29.08,51.85-44.49,77.15s-31.3,50-46.56,74.41-30,48.67-43.14,73.09-24.83,49-33.82,73.84S157,2482.89,154,2507.93a316.73,316.73,0,0,0-2.24,37.86,321.66,321.66,0,0,0,2.35,38.15,386.58,386.58,0,0,0,6.5,38.11c2.87,12.66,6.37,25.26,10.39,37.78a528.54,528.54,0,0,0,30.37,73.73c6,12.05,12.47,23.91,19.26,35.66s13.94,23.36,21.49,34.76,15.37,22.68,23.51,33.78l6.16,8.3,6.43,8.21,12.81,16.52,13.35,16.15,6.67,8.11L318,2903l13.83,15.9,14.31,15.54,7.16,7.81,7.38,7.61,14.75,15.31,15.17,15c2.53,2.5,5,5,7.6,7.53L406,2995l15.58,14.78,15.95,14.47c2.66,2.42,5.3,4.88,8,7.28l8.15,7.1L470,3052.91a108.58,108.58,0,0,0,32.42,19c5.78,2.16,11.67,4,17.66,5.69,3,.83,6,1.68,9.05,2.43l9.28,2.17c6.22,1.45,12.51,2.94,18.84,4.66,3.15.89,6.39,1.7,9.62,2.63s6.48,1.93,9.73,3,6.52,2.32,9.8,3.66c1.64.67,3.28,1.38,4.93,2.11s3.34,1.43,5,2.21a152.59,152.59,0,0,1,20.24,11.28c2.47,2.32,5,4.61,7.38,7s4.8,4.83,7.13,7.28c4.66,4.88,9.07,9.87,13.31,14.34,8.5,8.89,16,16.32,22,19,34.2,16.44,70,31.94,106.6,45.62a1087.54,1087.54,0,0,0,110.66,35A821.94,821.94,0,0,0,992,3260.55c17.5,2.08,34.69,3.29,51.34,3.85a469.35,469.35,0,0,0,48.48-1C1087.28,3257.71,1084.21,3254.29,1084.21,3254.29Z"/><path class="t" d="M165,2190.56c-16.58,24-34.16,49.07-51.79,76.24-8.81,13.59-17.62,27.7-26.27,42.5S69.84,2339.64,61.81,2356l-2,4.14L57,2366.36c-1.11,2.39-2.37,5.09-3.69,8.14s-2.83,6.32-4.32,10c8.34-18.86,17.76-36.78,27.54-54s20.08-33.65,30.31-49.53C127.31,2249.18,147.69,2219.55,165,2190.56Z"/><path class="t" d="M15.47,2506a442.67,442.67,0,0,0-3.36,64.82,475.74,475.74,0,0,0,5.53,62.62A544.14,544.14,0,0,0,42,2729.74c-.5-3.34-.89-6.75-1.35-10.12s-1-6.72-1.33-10.16c-.81-6.83-1.72-13.62-2.44-20.56-1.63-13.77-2.95-27.85-4.24-42.18l-.92-10.82c-.31-3.62-.51-7.31-.8-11l-.43-5.52-.33-5.58-.7-11.25c-.81-15.13-1.35-30.71-1.63-46.85,0,0-.88-2-2.21-5.19-.66-1.62-1.43-3.55-2.26-5.73l-1.27-3.43-1.2-3.73c-.8-2.57-1.6-5.28-2.33-8-.37-1.38-.72-2.78-1.05-4.18s-.56-2.8-.81-4.19c-.49-2.78-.87-5.51-1.1-8.09A38.6,38.6,0,0,1,15.47,2506Z"/><path class="x" d="M791.08,3367.2a1413.54,1413.54,0,0,0,148.58,34.89q75.2,13.44,152.35,19.5C993.43,3393.64,893.87,3381,791.08,3367.2Z"/><path class="y" d="M1109.12,3356.92a760.15,760.15,0,0,1-103.08-6.68,897.34,897.34,0,0,1-109.27-21.39,1050,1050,0,0,1-115.15-37.18A1127,1127,0,0,1,662,3237.11c-39-22.53-83.7-44.49-130.85-68.91-11.86-6-23.68-12.46-35.78-18.81-6.07-3.12-12-6.54-18.1-9.88L459,3129.42c-24.2-14-48.84-28.51-72.8-44.68-24.18-15.82-47.61-33.37-70.39-51.7q-8.38-7.09-16.69-14.26l-8.28-7.19c-2.71-2.45-5.36-5-8-7.47q-8-7.51-15.83-15.1l-2-1.9-1.9-2-3.78-3.94-7.5-7.91-7.41-7.94c-1.22-1.33-2.47-2.64-3.66-4l-3.52-4.12q-7-8.25-13.84-16.55c-4.62-5.46-8.81-11.28-13-17S202,2912.23,198,2906.45c-7.95-11.81-15.24-23.89-21.85-36.13A384.31,384.31,0,0,1,158.71,2833c-5.83-14.63-15.63-30.46-27.13-48.32s-24.59-37.84-37-60.3c-1.54-2.81-3-5.68-4.54-8.56s-3-5.79-4.45-8.78l-4.32-9c-1.38-3.05-2.72-6.14-4.07-9.25-.67-1.56-1.36-3.11-2-4.68l-1.88-4.77c-1.23-3.2-2.51-6.38-3.66-9.64s-2.25-6.55-3.34-9.85c-.56-1.65-1.07-3.31-1.55-5l-1.45-5c-2-6.71-3.49-13.62-5-20.52-1.27-7-2.54-13.93-3.23-21-.87-7-1.2-14.16-1.41-21.22-.06-3.54,0-7.1.13-10.62.06-1.77.11-3.52.21-5.28l.44-5.28c-.92-2.69-1.91-5.38-2.91-8s-1.85-5.33-2.72-7.93-1.65-5.14-2.32-7.59a58.92,58.92,0,0,1-1.32-7c-1.15-8.9,1.29-15.55,10.79-17.15A356.93,356.93,0,0,1,63.89,2463a392.12,392.12,0,0,1,15.93-53,474.27,474.27,0,0,1,22-49.5c4-8,8.3-15.7,12.62-23.37s8.82-15.13,13.41-22.47c18.28-29.44,38-56.67,57.39-82.76l28.8-38.32,7-9.38,6.89-9.32,6.86-9.28,6.72-9.29c38.36-52.55,72.18-107.91,98.79-166.09a722.91,722.91,0,0,0,34-89.1c1.15-3.79,2.34-7.56,3.46-11.36l3.07-11.44c1-3.82,2.08-7.62,3-11.45l2.63-11.52c.86-3.84,1.79-7.68,2.61-11.52s1.54-7.67,2.26-11.52,1.38-7.7,2-11.56,1.22-7.73,1.77-11.6c8.75-61.93,7.25-125.23-5.89-185.47a435.64,435.64,0,0,0-28.77-87.29,397,397,0,0,0-21.34-40.61l-3-4.91c-1-1.65-2.1-3.22-3.14-4.83l-6.35-9.66c-1-1.64-2.2-3.18-3.33-4.76l-3.41-4.72-3.4-4.74-1.7-2.37-1.81-2.3a573.37,573.37,0,0,0-48-52.54c-17.42-17-36.11-33.45-55.58-49.67-38.92-32.44-81.06-63.89-122.4-97.16S4.73,1190.87-36,1156.46l-121.52-103.14A84.84,84.84,0,0,0-167.72,1083a79.38,79.38,0,0,0-.66,15.91,83.93,83.93,0,0,0,2.7,16.43c5.9,22.21,21.36,45.6,49,68.07,50.87,48.69,102.24,93,154,133.7,6.49,5.05,12.93,10.12,19.42,15.08l9.72,7.41q4.86,3.71,9.67,7.31l19.11,14.24,18.69,13.81,18.21,13.47,17.68,13.22,8.56,6.54c2.83,2.18,5.76,4.33,8.48,6.5l8.28,6.48,4.13,3.23,4,3.24c21.42,17.2,41,34.31,58.22,51.69a374.45,374.45,0,0,1,44.21,53.35,319.81,319.81,0,0,1,31,59.14,380.16,380.16,0,0,1,19.52,66.47,342.33,342.33,0,0,1,15,108c-.12,9.24-.76,18.48-1.6,27.69-.52,4.6-.95,9.2-1.64,13.77l-1,6.86-1.17,6.83-.6,3.41-.68,3.39-1.39,6.77c-1.08,4.55-2.22,9.1-3.36,13.63l-1.73,6.79c-.6,2.26-1.34,4.5-2,6.74q-2.07,6.72-4.2,13.4l3-14.2.73-3.55.36-1.78.29-1.78,1.14-7.14,1.11-7.14.55-3.57.27-1.78.21-1.76c.55-4.7,1.11-9.39,1.47-14.11a379.6,379.6,0,0,0,.72-56.47c-.42,11-1.33,22.13-2.5,33.21s-2.76,22.16-4.71,33.2l-.72,4.14c-.25,1.39-.57,2.8-.85,4.2l-1.73,8.42-1.71,8.44-2,8.43-2,8.44-1,4.23-1.18,4.22L318.38,1896a799.12,799.12,0,0,1-55.61,135.55c1.66-2.47,3.22-5,4.88-7.55l-8.5,16.2-9,16.17-2.25,4.06-2.35,4-4.72,8.1-4.75,8.13-5,8.12q-2.74,5.29-5.58,10.57c-1.91,3.52-3.94,7-6,10.5s-4.08,7-6.16,10.46-4.3,6.93-6.49,10.39l-6.65,10.34-6.95,10.27c-2.34,3.42-4.67,6.82-7.07,10.24L179,2171.9c-9.93,13.76-20.39,27.68-31,41.92s-21.41,28.79-32,43.82c-7.17,10.67-16.28,24.43-26.33,40.82s-21,35.51-31.45,56.83l-1.74,4.13-2.72,6.77-1.7,4.26-1.85,4.85-2,5.35L46,2386.55l-2.28,6.32-2.31,6.8c-1.62,4.62-3.14,9.63-4.78,14.75-3.13,10.37-6.4,21.55-9.2,33.36s-5.51,24-7.54,36.29l-1.58,9.16L17,2502.3c-1,6-1.59,11.92-2.31,17.67-2.76,23-4,43.46-6.2,57.66l.61,12.08.82,9.89c.27,2.92.46,5.47.72,7.57l.64,5a537.24,537.24,0,0,0,9,55.7c3.93,18.1,8.67,35.73,14,52.91a687,687,0,0,0,39.28,97.56c7.53,15.42,15.6,30.33,24,44.92s17.14,28.82,26.3,42.63,18.61,27.34,28.39,40.47l14.66,19,7.34,9.49,7.61,9.2,9.86,9.7,4.92,4.86c1.64,1.62,3.26,3.27,5,4.81q10.09,9.41,20.1,18.92l5,4.76,5.11,4.62,10.19,9.3,10.14,9.39c3.39,3.12,6.87,6.11,10.29,9.21,27.24,24.92,55,49.4,82.72,75.41q7,6.79,14.73,13.75c5.15,4.55,10.56,9,16.06,13.54l8.37,6.78,4.25,3.39c1.42,1.13,2.89,2.19,4.34,3.28q8.73,6.52,17.67,13c3,2.13,5.95,4.31,9,6.38l9.08,6.08q9.08,6,18.08,11.88c6,3.84,12,7.41,17.89,11s11.63,7.05,17.29,10.28c11.34,6.37,22,12.38,31.72,17.61l25.77,13.5c3.64,2,7,3.59,9.88,5.09s5.42,2.8,7.47,3.92c4.1,2.23,6.39,3.67,6.47,4.21,4.15,2,8.3,4,12.47,5.88l12.58,5.58,12.61,5.53,6.32,2.74,6.34,2.59q12.68,5.17,25.43,10.24c8.52,3.26,17.06,6.41,25.62,9.56L741.5,3336c12.74,2.42,25.43,5,38.08,7.58q9.49,1.87,19,3.85l18.9,4c50.33,10.73,100.13,22.74,149.7,38.08,6.72.75,13.45,1.39,20.18,2s13.49,1.2,20.27,1.75c13.53,1,27.13,1.94,40.79,2.64a223,223,0,0,0,32.47-.5,112.19,112.19,0,0,0,23.87-4.75c13.29-4.37,21.53-11.12,26.1-19.19A165.7,165.7,0,0,1,1109.12,3356.92Z"/></g></g></g></svg>